<?xml version="1.0" encoding="UTF-8" standalone="no"?>
<!-- Created with Inkscape (http://www.inkscape.org/) -->

<svg
   width="210mm"
   height="297mm"
   viewBox="0 0 210 297"
   version="1.1"
   id="svg3658"
   sodipodi:docname="EntanglementSwapping.svg"
   inkscape:version="1.1.2 (0a00cf5339, 2022-02-04)"
   xmlns:inkscape="http://www.inkscape.org/namespaces/inkscape"
   xmlns:sodipodi="http://sodipodi.sourceforge.net/DTD/sodipodi-0.dtd"
   xmlns:xlink="http://www.w3.org/1999/xlink"
   xmlns="http://www.w3.org/2000/svg"
   xmlns:svg="http://www.w3.org/2000/svg">
  <sodipodi:namedview
     id="namedview3660"
     pagecolor="#ffffff"
     bordercolor="#666666"
     borderopacity="1.0"
     inkscape:pageshadow="2"
     inkscape:pageopacity="0.0"
     inkscape:pagecheckerboard="0"
     inkscape:document-units="mm"
     showgrid="false"
     inkscape:snap-text-baseline="false"
     inkscape:object-nodes="false"
     inkscape:zoom="1.4378367"
     inkscape:cx="343.57169"
     inkscape:cy="222.90431"
     inkscape:window-width="1920"
     inkscape:window-height="1016"
     inkscape:window-x="0"
     inkscape:window-y="27"
     inkscape:window-maximized="1"
     inkscape:current-layer="layer1" />
  <defs
     id="defs3655">
    <marker
       style="overflow:visible;"
       id="marker89637"
       refX="0.0"
       refY="0.0"
       orient="auto"
       inkscape:stockid="Arrow1Lend"
       inkscape:isstock="true">
      <path
         transform="scale(0.8) rotate(180) translate(12.5,0)"
         style="fill-rule:evenodd;fill:context-stroke;stroke:context-stroke;stroke-width:1.0pt;"
         d="M 0.0,0.0 L 5.0,-5.0 L -12.5,0.0 L 5.0,5.0 L 0.0,0.0 z "
         id="path89635" />
    </marker>
    <marker
       style="overflow:visible;"
       id="marker89627"
       refX="0.0"
       refY="0.0"
       orient="auto"
       inkscape:stockid="Arrow1Lend"
       inkscape:isstock="true">
      <path
         transform="scale(0.8) rotate(180) translate(12.5,0)"
         style="fill-rule:evenodd;fill:context-stroke;stroke:context-stroke;stroke-width:1.0pt;"
         d="M 0.0,0.0 L 5.0,-5.0 L -12.5,0.0 L 5.0,5.0 L 0.0,0.0 z "
         id="path89625" />
    </marker>
    <marker
       style="overflow:visible;"
       id="marker89617"
       refX="0.0"
       refY="0.0"
       orient="auto"
       inkscape:stockid="Arrow1Lend"
       inkscape:isstock="true">
      <path
         transform="scale(0.8) rotate(180) translate(12.5,0)"
         style="fill-rule:evenodd;fill:context-stroke;stroke:context-stroke;stroke-width:1.0pt;"
         d="M 0.0,0.0 L 5.0,-5.0 L -12.5,0.0 L 5.0,5.0 L 0.0,0.0 z "
         id="path89615" />
    </marker>
    <marker
       style="overflow:visible;"
       id="marker89607"
       refX="0.0"
       refY="0.0"
       orient="auto"
       inkscape:stockid="Arrow1Lend"
       inkscape:isstock="true">
      <path
         transform="scale(0.8) rotate(180) translate(12.5,0)"
         style="fill-rule:evenodd;fill:context-stroke;stroke:context-stroke;stroke-width:1.0pt;"
         d="M 0.0,0.0 L 5.0,-5.0 L -12.5,0.0 L 5.0,5.0 L 0.0,0.0 z "
         id="path89605" />
    </marker>
    <marker
       style="overflow:visible"
       id="marker89597"
       refX="0.0"
       refY="0.0"
       orient="auto"
       inkscape:stockid="Arrow1Lstart"
       inkscape:isstock="true">
      <path
         transform="scale(0.8) translate(12.5,0)"
         style="fill-rule:evenodd;fill:context-stroke;stroke:context-stroke;stroke-width:1.0pt"
         d="M 0.0,0.0 L 5.0,-5.0 L -12.5,0.0 L 5.0,5.0 L 0.0,0.0 z "
         id="path89595" />
    </marker>
    <marker
       style="overflow:visible;"
       id="marker85266"
       refX="0.0"
       refY="0.0"
       orient="auto"
       inkscape:stockid="Arrow1Lend"
       inkscape:isstock="true">
      <path
         transform="scale(0.8) rotate(180) translate(12.5,0)"
         style="fill-rule:evenodd;fill:context-stroke;stroke:context-stroke;stroke-width:1.0pt;"
         d="M 0.0,0.0 L 5.0,-5.0 L -12.5,0.0 L 5.0,5.0 L 0.0,0.0 z "
         id="path85264" />
    </marker>
    <marker
       style="overflow:visible"
       id="Arrow1Lstart"
       refX="0.0"
       refY="0.0"
       orient="auto"
       inkscape:stockid="Arrow1Lstart"
       inkscape:isstock="true">
      <path
         transform="scale(0.8) translate(12.5,0)"
         style="fill-rule:evenodd;fill:context-stroke;stroke:context-stroke;stroke-width:1.0pt"
         d="M 0.0,0.0 L 5.0,-5.0 L -12.5,0.0 L 5.0,5.0 L 0.0,0.0 z "
         id="path84988" />
    </marker>
    <marker
       style="overflow:visible;"
       id="Arrow1Lend"
       refX="0.0"
       refY="0.0"
       orient="auto"
       inkscape:stockid="Arrow1Lend"
       inkscape:isstock="true">
      <path
         transform="scale(0.8) rotate(180) translate(12.5,0)"
         style="fill-rule:evenodd;fill:context-stroke;stroke:context-stroke;stroke-width:1.0pt;"
         d="M 0.0,0.0 L 5.0,-5.0 L -12.5,0.0 L 5.0,5.0 L 0.0,0.0 z "
         id="path84991" />
    </marker>
    <g
       id="g303">
      <symbol
         overflow="visible"
         id="symbol7554">
        <path
           style="stroke:none;"
           d=""
           id="path5008" />
      </symbol>
      <symbol
         overflow="visible"
         id="symbol7015">
        <path
           style="stroke:none;"
           d="M 4.921875 -2.953125 C 4.6875 -2.109375 4.34375 -0.875 4.34375 -0.109375 C 4.34375 0.15625 4.5 0.28125 4.75 0.28125 C 5.140625 0.28125 5.890625 -0.15625 5.890625 -0.34375 C 5.890625 -0.40625 5.84375 -0.421875 5.796875 -0.421875 C 5.671875 -0.421875 5.5 -0.328125 5.390625 -0.265625 C 5.25 -0.296875 5.1875 -0.390625 5.1875 -0.53125 C 5.1875 -1.75 6.3125 -5.234375 6.609375 -5.96875 C 6.734375 -6.25 6.859375 -6.65625 6.859375 -6.734375 C 6.859375 -6.8125 6.796875 -6.8125 6.765625 -6.8125 C 6.546875 -6.8125 6.09375 -6.546875 6.015625 -6.34375 C 5.890625 -6 5.875 -5.953125 5.75 -5.578125 C 5.421875 -4.640625 4.4375 -2.984375 3.453125 -1.828125 C 3.140625 -1.484375 2.15625 -0.328125 1.453125 -0.328125 C 0.984375 -0.328125 0.671875 -0.734375 0.671875 -1.390625 C 0.671875 -2.09375 1.0625 -2.984375 1.671875 -4.359375 C 2.03125 -5.171875 2.328125 -5.875 2.328125 -6.328125 C 2.328125 -6.796875 2 -6.8125 1.828125 -6.8125 C 1.0625 -6.8125 0.09375 -6.1875 0.09375 -5.984375 C 0.09375 -5.921875 0.171875 -5.921875 0.203125 -5.921875 C 0.328125 -5.921875 0.515625 -6 0.671875 -6.109375 C 0.734375 -6.15625 0.890625 -6.265625 1.171875 -6.265625 C 1.390625 -6.265625 1.46875 -6.125 1.46875 -5.90625 C 1.46875 -5.46875 1.109375 -4.640625 0.703125 -3.6875 C 0.046875 -2.1875 -0.171875 -1.5625 -0.171875 -0.984375 C -0.171875 -0.3125 0.09375 0.21875 0.796875 0.21875 C 1.421875 0.21875 2.328125 -0.1875 3.34375 -1.140625 C 4.03125 -1.78125 4.46875 -2.375 4.90625 -2.953125 Z M 4.921875 -2.953125 "
           id="path5419" />
      </symbol>
    </g>
    <g
       id="g9296">
      <symbol
         overflow="visible"
         id="symbol2261">
        <path
           style="stroke:none;"
           d=""
           id="path3240" />
      </symbol>
      <symbol
         overflow="visible"
         id="symbol3522">
        <path
           style="stroke:none;"
           d="M 2.5 -6.921875 L 1.15625 -5.5625 L 1.328125 -5.390625 L 2.5 -6.40625 L 3.640625 -5.390625 L 3.8125 -5.5625 Z M 2.5 -6.921875 "
           id="path5291" />
      </symbol>
      <symbol
         overflow="visible"
         id="symbol8373">
        <path
           style="stroke:none;"
           d=""
           id="path2970" />
      </symbol>
      <symbol
         overflow="visible"
         id="symbol7645">
        <path
           style="stroke:none;"
           d="M 4.921875 -2.953125 C 4.6875 -2.109375 4.34375 -0.875 4.34375 -0.109375 C 4.34375 0.15625 4.5 0.28125 4.75 0.28125 C 5.140625 0.28125 5.890625 -0.15625 5.890625 -0.34375 C 5.890625 -0.40625 5.84375 -0.421875 5.796875 -0.421875 C 5.671875 -0.421875 5.5 -0.328125 5.390625 -0.265625 C 5.25 -0.296875 5.1875 -0.390625 5.1875 -0.53125 C 5.1875 -1.75 6.3125 -5.234375 6.609375 -5.96875 C 6.734375 -6.25 6.859375 -6.65625 6.859375 -6.734375 C 6.859375 -6.8125 6.796875 -6.8125 6.765625 -6.8125 C 6.546875 -6.8125 6.09375 -6.546875 6.015625 -6.34375 C 5.890625 -6 5.875 -5.953125 5.75 -5.578125 C 5.421875 -4.640625 4.4375 -2.984375 3.453125 -1.828125 C 3.140625 -1.484375 2.15625 -0.328125 1.453125 -0.328125 C 0.984375 -0.328125 0.671875 -0.734375 0.671875 -1.390625 C 0.671875 -2.09375 1.0625 -2.984375 1.671875 -4.359375 C 2.03125 -5.171875 2.328125 -5.875 2.328125 -6.328125 C 2.328125 -6.796875 2 -6.8125 1.828125 -6.8125 C 1.0625 -6.8125 0.09375 -6.1875 0.09375 -5.984375 C 0.09375 -5.921875 0.171875 -5.921875 0.203125 -5.921875 C 0.328125 -5.921875 0.515625 -6 0.671875 -6.109375 C 0.734375 -6.15625 0.890625 -6.265625 1.171875 -6.265625 C 1.390625 -6.265625 1.46875 -6.125 1.46875 -5.90625 C 1.46875 -5.46875 1.109375 -4.640625 0.703125 -3.6875 C 0.046875 -2.1875 -0.171875 -1.5625 -0.171875 -0.984375 C -0.171875 -0.3125 0.09375 0.21875 0.796875 0.21875 C 1.421875 0.21875 2.328125 -0.1875 3.34375 -1.140625 C 4.03125 -1.78125 4.46875 -2.375 4.90625 -2.953125 Z M 4.921875 -2.953125 "
           id="path8500" />
      </symbol>
    </g>
  </defs>
  <g
     inkscape:label="Layer 1"
     inkscape:groupmode="layer"
     id="layer1">
    <path
       style="fill:#9d88a2;fill-opacity:1;stroke:#000000;stroke-width:0.908;stroke-linecap:butt;stroke-linejoin:miter;stroke-miterlimit:4;stroke-dasharray:none;stroke-opacity:1"
       d="m 121.11227,85.138001 v 28.260389 h 35.63812 V 85.405851 Z"
       id="path3775"
       inkscape:export-filename="/home/bogfootlj/Notes/PhDNotes/PhDTopicDefenseAbstract/Seminar/Presentation/Images/EntanglementSwapping.png"
       inkscape:export-xdpi="96"
       inkscape:export-ydpi="96" />
    <text
       xml:space="preserve"
       style="font-style:normal;font-weight:normal;font-size:4.44785px;line-height:1.25;font-family:sans-serif;fill:#000000;fill-opacity:1;stroke:none;stroke-width:0.208493"
       x="126.25797"
       y="96.397522"
       id="text8639"
       transform="scale(1.0097498,0.99034433)"
       inkscape:export-filename="/home/bogfootlj/Notes/PhDNotes/PhDTopicDefenseAbstract/Seminar/Presentation/Images/EntanglementSwapping.png"
       inkscape:export-xdpi="96"
       inkscape:export-ydpi="96"><tspan
         sodipodi:role="line"
         id="tspan8637"
         style="font-size:4.44785px;stroke-width:0.208493"
         x="126.25797"
         y="96.397522">Entangled</tspan><tspan
         sodipodi:role="line"
         style="font-size:4.44785px;stroke-width:0.208493"
         x="126.25797"
         y="101.95734"
         id="tspan8641">photon</tspan><tspan
         sodipodi:role="line"
         style="font-size:4.44785px;stroke-width:0.208493"
         x="126.25797"
         y="107.51715"
         id="tspan8643">source</tspan></text>
    <path
       style="fill:#9d88a2;fill-opacity:1;stroke:#000000;stroke-width:0.908;stroke-linecap:butt;stroke-linejoin:miter;stroke-miterlimit:4;stroke-dasharray:none;stroke-opacity:1"
       d="M 23.95554,85.210971 V 113.47136 H 59.59366 V 85.478821 Z"
       id="path3775-6"
       inkscape:export-filename="/home/bogfootlj/Notes/PhDNotes/PhDTopicDefenseAbstract/Seminar/Presentation/Images/EntanglementSwapping.png"
       inkscape:export-xdpi="96"
       inkscape:export-ydpi="96" />
    <text
       xml:space="preserve"
       style="font-style:normal;font-weight:normal;font-size:4.44785px;line-height:1.25;font-family:sans-serif;fill:#000000;fill-opacity:1;stroke:none;stroke-width:0.208493"
       x="30.039347"
       y="96.471191"
       id="text8639-0"
       transform="scale(1.0097498,0.99034434)"
       inkscape:export-filename="/home/bogfootlj/Notes/PhDNotes/PhDTopicDefenseAbstract/Seminar/Presentation/Images/EntanglementSwapping.png"
       inkscape:export-xdpi="96"
       inkscape:export-ydpi="96"><tspan
         sodipodi:role="line"
         id="tspan8637-8"
         style="font-size:4.44785px;stroke-width:0.208493"
         x="30.039347"
         y="96.471191">Entangled</tspan><tspan
         sodipodi:role="line"
         style="font-size:4.44785px;stroke-width:0.208493"
         x="30.039347"
         y="102.03101"
         id="tspan8641-5">photon</tspan><tspan
         sodipodi:role="line"
         style="font-size:4.44785px;stroke-width:0.208493"
         x="30.039347"
         y="107.59082"
         id="tspan8643-3">source</tspan></text>
    <path
       style="fill:none;stroke:#000000;stroke-width:0.760425;stroke-linecap:butt;stroke-linejoin:miter;stroke-miterlimit:4;stroke-dasharray:none;stroke-opacity:1;marker-end:url(#marker89637)"
       d="m 156.75039,85.405851 21.73787,-21.32012"
       id="path16530"
       inkscape:export-filename="/home/bogfootlj/Notes/PhDNotes/PhDTopicDefenseAbstract/Seminar/Presentation/Images/EntanglementSwapping.png"
       inkscape:export-xdpi="96"
       inkscape:export-ydpi="96" />
    <path
       style="fill:none;stroke:#000000;stroke-width:0.760425;stroke-linecap:butt;stroke-linejoin:miter;stroke-miterlimit:4;stroke-dasharray:none;stroke-opacity:1;marker-end:url(#marker89617)"
       d="M 59.961699,85.094141 81.69957,63.774031"
       id="path16530-0"
       inkscape:export-filename="/home/bogfootlj/Notes/PhDNotes/PhDTopicDefenseAbstract/Seminar/Presentation/Images/EntanglementSwapping.png"
       inkscape:export-xdpi="96"
       inkscape:export-ydpi="96" />
    <path
       style="fill:none;stroke:#000000;stroke-width:0.760425;stroke-linecap:butt;stroke-linejoin:miter;stroke-miterlimit:4;stroke-dasharray:none;stroke-opacity:1"
       d="m 196.58511,48.458371 9.93288,-28.53399"
       id="path16530-0-1"
       inkscape:export-filename="/home/bogfootlj/Notes/PhDNotes/PhDTopicDefenseAbstract/Seminar/Presentation/Images/EntanglementSwapping.png"
       inkscape:export-xdpi="96"
       inkscape:export-ydpi="96" />
    <path
       style="fill:none;stroke:#000000;stroke-width:0.760425;stroke-linecap:butt;stroke-linejoin:miter;stroke-miterlimit:4;stroke-dasharray:none;stroke-opacity:1;marker-end:url(#marker89627)"
       d="M 121.11227,85.138001 99.844965,64.279401"
       id="path16725"
       inkscape:export-filename="/home/bogfootlj/Notes/PhDNotes/PhDTopicDefenseAbstract/Seminar/Presentation/Images/EntanglementSwapping.png"
       inkscape:export-xdpi="96"
       inkscape:export-ydpi="96" />
    <path
       style="fill:none;stroke:#000000;stroke-width:0.730974;stroke-linecap:butt;stroke-linejoin:miter;stroke-miterlimit:4.1;stroke-dasharray:none;stroke-opacity:1;marker-end:url(#marker89607)"
       d="M 24.717763,85.948951 5.5201914,64.596761"
       id="path16725-9"
       inkscape:export-filename="/home/bogfootlj/Notes/PhDNotes/PhDTopicDefenseAbstract/Seminar/Presentation/Images/EntanglementSwapping.png"
       inkscape:export-xdpi="96"
       inkscape:export-ydpi="96" />
    <ellipse
       style="fill:#9d88a2;fill-opacity:1;stroke:#000000;stroke-width:0.97;stroke-miterlimit:4;stroke-dasharray:none;stroke-opacity:1"
       id="path16829"
       cx="91.718269"
       cy="54.503223"
       rx="35.757"
       ry="12.902858"
       inkscape:export-filename="/home/bogfootlj/Notes/PhDNotes/PhDTopicDefenseAbstract/Seminar/Presentation/Images/EntanglementSwapping.png"
       inkscape:export-xdpi="96"
       inkscape:export-ydpi="96" />
    <ellipse
       style="fill:#9d88a2;fill-opacity:1;stroke:#000001;stroke-width:0.97;stroke-miterlimit:4;stroke-dasharray:none;stroke-opacity:1"
       id="path16829-9"
       cx="187.78708"
       cy="56.73531"
       rx="35.757"
       ry="12.902858"
       inkscape:export-filename="/home/bogfootlj/Notes/PhDNotes/PhDTopicDefenseAbstract/Seminar/Presentation/Images/EntanglementSwapping.png"
       inkscape:export-xdpi="96"
       inkscape:export-ydpi="96" />
    <text
       xml:space="preserve"
       style="font-style:normal;font-weight:normal;font-size:8.33969px;line-height:1.25;font-family:sans-serif;fill:#000000;fill-opacity:1;stroke:none;stroke-width:0.208493"
       x="82.638237"
       y="40.892128"
       id="text20628"
       transform="scale(1.0097498,0.99034433)"
       inkscape:export-filename="/home/bogfootlj/Notes/PhDNotes/PhDTopicDefenseAbstract/Seminar/Presentation/Images/EntanglementSwapping.png"
       inkscape:export-xdpi="96"
       inkscape:export-ydpi="96"><tspan
         sodipodi:role="line"
         id="tspan20626"
         style="stroke-width:0.208493"
         x="82.638237"
         y="40.892128">A</tspan></text>
    <text
       xml:space="preserve"
       style="font-style:normal;font-weight:normal;font-size:8.33969px;line-height:1.25;font-family:sans-serif;fill:#000000;fill-opacity:1;stroke:none;stroke-width:0.208493"
       x="182.86708"
       y="41.596764"
       id="text23602"
       transform="scale(1.0097498,0.99034434)"
       inkscape:export-filename="/home/bogfootlj/Notes/PhDNotes/PhDTopicDefenseAbstract/Seminar/Presentation/Images/EntanglementSwapping.png"
       inkscape:export-xdpi="96"
       inkscape:export-ydpi="96"><tspan
         sodipodi:role="line"
         id="tspan23600"
         style="stroke-width:0.208493"
         x="182.86708"
         y="41.596764">B</tspan></text>
    <text
       xml:space="preserve"
       style="font-style:normal;font-weight:normal;font-size:8.33969px;line-height:1.25;font-family:sans-serif;fill:#000000;fill-opacity:1;stroke:none;stroke-width:0.208493"
       x="113.17771"
       y="78.347923"
       id="text34694"
       transform="scale(1.0097498,0.99034434)"
       inkscape:export-filename="/home/bogfootlj/Notes/PhDNotes/PhDTopicDefenseAbstract/Seminar/Presentation/Images/EntanglementSwapping.png"
       inkscape:export-xdpi="96"
       inkscape:export-ydpi="96"><tspan
         sodipodi:role="line"
         id="tspan34692"
         style="stroke-width:0.208493"
         x="113.17771"
         y="78.347923">2</tspan></text>
    <text
       xml:space="preserve"
       style="font-style:normal;font-weight:normal;font-size:8.33969px;line-height:1.25;font-family:sans-serif;fill:#000000;fill-opacity:1;stroke:none;stroke-width:0.208493"
       x="160.31291"
       y="75.284164"
       id="text36810"
       transform="scale(1.0097498,0.99034434)"
       inkscape:export-filename="/home/bogfootlj/Notes/PhDNotes/PhDTopicDefenseAbstract/Seminar/Presentation/Images/EntanglementSwapping.png"
       inkscape:export-xdpi="96"
       inkscape:export-ydpi="96"><tspan
         sodipodi:role="line"
         id="tspan36808"
         style="stroke-width:0.208493"
         x="160.31291"
         y="75.284164">3</tspan></text>
    <text
       xml:space="preserve"
       style="font-style:normal;font-weight:normal;font-size:8.33969px;line-height:1.25;font-family:sans-serif;fill:#000000;fill-opacity:1;stroke:none;stroke-width:0.208493"
       x="62.470516"
       y="75.533081"
       id="text38794"
       transform="scale(1.0097498,0.99034434)"
       inkscape:export-filename="/home/bogfootlj/Notes/PhDNotes/PhDTopicDefenseAbstract/Seminar/Presentation/Images/EntanglementSwapping.png"
       inkscape:export-xdpi="96"
       inkscape:export-ydpi="96"><tspan
         sodipodi:role="line"
         id="tspan38792"
         style="stroke-width:0.208493"
         x="62.470516"
         y="75.533081">1</tspan></text>
    <path
       style="fill:none;stroke:#000000;stroke-width:0.61181;stroke-linecap:butt;stroke-linejoin:miter;stroke-miterlimit:4;stroke-dasharray:none;stroke-opacity:1"
       d="m 103.22511,41.950439 c 1.28532,-1.14967 2.41187,-2.53763 3.7181,-3.651591 1.46508,-1.249421 0.29362,0.227878 1.40938,-0.961544 0.99769,-1.063543 2.20878,-2.504344 3.66439,-3.125018 0.3465,-0.147747 0.76781,-0.117682 1.1275,-0.240386 3.10146,-1.057972 6.28585,-1.670678 9.5838,-1.20193 0.79245,0.112639 1.50002,0.560197 2.25501,0.721158 1.34256,0.286238 -0.4062,-0.711707 1.69125,0.480772 0.22113,0.125716 0.33588,0.364168 0.56376,0.480772 1.22503,0.626827 2.90021,0.790616 3.94627,1.682702 0.68462,0.583849 -0.0838,0.352993 0.56375,0.721158 0.7832,0.445279 1.66841,1.015686 2.25502,1.682702 2.68225,3.049931 4.0333,4.786382 9.00935,4.786382 1.11499,0 2.55726,0.188838 3.6644,0 3.04824,-0.51991 6.47466,-3.121224 9.01271,-4.564206 0.9411,-0.53505 2.35401,-1.003759 3.38252,-1.442316 4.33922,-1.850254 8.33436,-3.365398 13.24818,-3.365398 0.64917,0 1.62847,-0.176571 2.2444,0 0.96675,0.27714 1.941,0.705874 2.80843,1.199037 0.22112,0.125715 0.31163,0.409099 0.56375,0.480771 0.17826,0.05069 0.39567,-0.07167 0.56375,0 0.084,0.03586 -0.0418,0.168629 0,0.240386 0.26902,0.461772 1.20391,0.833778 1.38001,1.134145 0.92604,1.579462 1.59284,3.199506 2.51121,4.725866 0.0928,0.15414 0.0343,1.15349 0.21952,1.28965 0.14531,0.106832 0.34913,0.09625 0.44189,0.229014"
       id="path42879"
       inkscape:export-filename="/home/bogfootlj/Notes/PhDNotes/PhDTopicDefenseAbstract/Seminar/Presentation/Images/EntanglementSwapping.png"
       inkscape:export-xdpi="96"
       inkscape:export-ydpi="96" />
    <g
       aria-label="Classical channel"
       id="text44662"
       style="font-size:7.05556px;line-height:1.25;stroke-width:0.264583"
       transform="matrix(0.79568777,0,0,0.78039614,50.19766,-75.963149)"
       inkscape:export-filename="/home/bogfootlj/Notes/PhDNotes/PhDTopicDefenseAbstract/Seminar/Presentation/Images/EntanglementSwapping.png"
       inkscape:export-xdpi="96"
       inkscape:export-ydpi="96">
      <path
         d="m 90.895784,132.93149 v 0.7338 q -0.3514,-0.32728 -0.751032,-0.4892 -0.396186,-0.16192 -0.844049,-0.16192 -0.881945,0 -1.350478,0.54088 -0.468533,0.53744 -0.468533,1.55719 0,1.0163 0.468533,1.55718 0.468533,0.53743 1.350478,0.53743 0.447863,0 0.844049,-0.16191 0.399632,-0.16192 0.751032,-0.48921 v 0.72692 q -0.365181,0.24804 -0.775147,0.37207 -0.406522,0.12402 -0.861275,0.12402 -1.167888,0 -1.839682,-0.71313 -0.671794,-0.71658 -0.671794,-1.95337 0,-1.24024 0.671794,-1.95338 0.671794,-0.71658 1.839682,-0.71658 0.461643,0 0.868165,0.12403 0.409967,0.12058 0.768257,0.36518 z"
         id="path47304" />
      <path
         d="m 91.943094,132.31826 h 0.633897 v 5.36057 h -0.633897 z"
         id="path47306" />
      <path
         d="m 95.656909,135.73924 q -0.768257,0 -1.064536,0.1757 -0.296278,0.1757 -0.296278,0.59945 0,0.33762 0.220486,0.53744 0.223932,0.19637 0.606337,0.19637 0.5271,0 0.844049,-0.37207 0.320395,-0.37552 0.320395,-0.99564 v -0.14125 z m 1.264351,-0.26182 v 2.20141 h -0.633898 v -0.58566 q -0.217042,0.3514 -0.540881,0.52021 -0.323839,0.16536 -0.792372,0.16536 -0.592557,0 -0.943957,-0.33073 -0.347955,-0.33417 -0.347955,-0.89228 0,-0.65112 0.434082,-0.98185 0.437528,-0.33073 1.302247,-0.33073 h 0.888836 v -0.062 q 0,-0.43753 -0.289389,-0.67524 -0.285943,-0.24116 -0.806153,-0.24116 -0.330729,0 -0.644233,0.0792 -0.313504,0.0792 -0.602892,0.23771 v -0.58567 q 0.347955,-0.13436 0.675239,-0.19981 0.327285,-0.0689 0.637343,-0.0689 0.837159,0 1.250571,0.43408 0.413412,0.43408 0.413412,1.31603 z"
         id="path47308" />
      <path
         d="m 100.68675,133.93401 v 0.59945 q -0.26872,-0.13781 -0.5581,-0.20671 -0.289392,-0.0689 -0.599451,-0.0689 -0.471979,0 -0.70969,0.1447 -0.234267,0.14469 -0.234267,0.43408 0,0.22048 0.16881,0.34795 0.16881,0.12403 0.678684,0.23771 l 0.217041,0.0482 q 0.675243,0.14469 0.957733,0.40996 0.28595,0.26183 0.28595,0.73381 0,0.53743 -0.42719,0.85094 -0.42375,0.3135 -1.167893,0.3135 -0.310059,0 -0.647678,-0.062 -0.334175,-0.0586 -0.706245,-0.17915 v -0.65456 q 0.3514,0.18259 0.692464,0.2756 0.341065,0.0896 0.67524,0.0896 0.447862,0 0.689022,-0.15159 0.24115,-0.15503 0.24115,-0.43408 0,-0.25838 -0.1757,-0.39619 -0.172251,-0.1378 -0.761363,-0.26527 l -0.220486,-0.0517 q -0.589112,-0.12402 -0.850939,-0.37896 -0.261827,-0.25838 -0.261827,-0.70624 0,-0.54433 0.385851,-0.84061 0.38585,-0.29627 1.095541,-0.29627 0.3514,0 0.661463,0.0517 0.31005,0.0517 0.57188,0.15503 z"
         id="path47310" />
      <path
         d="m 104.36267,133.93401 v 0.59945 q -0.26872,-0.13781 -0.55811,-0.20671 -0.28938,-0.0689 -0.59944,-0.0689 -0.47198,0 -0.70969,0.1447 -0.23427,0.14469 -0.23427,0.43408 0,0.22048 0.16881,0.34795 0.16881,0.12403 0.67868,0.23771 l 0.21705,0.0482 q 0.67523,0.14469 0.95773,0.40996 0.28595,0.26183 0.28595,0.73381 0,0.53743 -0.4272,0.85094 -0.42374,0.3135 -1.16788,0.3135 -0.31006,0 -0.64768,-0.062 -0.33418,-0.0586 -0.70625,-0.17915 v -0.65456 q 0.3514,0.18259 0.69247,0.2756 0.34106,0.0896 0.67524,0.0896 0.44786,0 0.68902,-0.15159 0.24115,-0.15503 0.24115,-0.43408 0,-0.25838 -0.1757,-0.39619 -0.17225,-0.1378 -0.76136,-0.26527 l -0.22049,-0.0517 q -0.58911,-0.12402 -0.85094,-0.37896 -0.26183,-0.25838 -0.26183,-0.70624 0,-0.54433 0.38585,-0.84061 0.38586,-0.29627 1.09555,-0.29627 0.3514,0 0.66145,0.0517 0.31006,0.0517 0.57189,0.15503 z"
         id="path47312" />
      <path
         d="m 105.57879,133.82032 h 0.6339 v 3.85851 h -0.6339 z m 0,-1.50206 h 0.6339 v 0.80271 h -0.6339 z"
         id="path47314" />
      <path
         d="m 110.3158,133.96846 v 0.59256 q -0.26872,-0.14814 -0.54088,-0.22049 -0.26872,-0.0758 -0.54433,-0.0758 -0.61667,0 -0.95773,0.39274 -0.34107,0.3893 -0.34107,1.09554 0,0.70625 0.34107,1.09899 0.34106,0.3893 0.95773,0.3893 0.27561,0 0.54433,-0.0724 0.27216,-0.0758 0.54088,-0.22393 v 0.58566 q -0.26527,0.12403 -0.55122,0.18604 -0.28249,0.062 -0.60289,0.062 -0.87161,0 -1.38493,-0.54777 -0.51332,-0.54777 -0.51332,-1.47795 0,-0.94395 0.51677,-1.48483 0.52021,-0.54088 1.42282,-0.54088 0.29284,0 0.57189,0.062 0.27905,0.0586 0.54088,0.17914 z"
         id="path47316" />
      <path
         d="m 113.17179,135.73924 q -0.76826,0 -1.06454,0.1757 -0.29628,0.1757 -0.29628,0.59945 0,0.33762 0.22049,0.53744 0.22393,0.19637 0.60633,0.19637 0.5271,0 0.84405,-0.37207 0.3204,-0.37552 0.3204,-0.99564 v -0.14125 z m 1.26435,-0.26182 v 2.20141 h -0.6339 v -0.58566 q -0.21704,0.3514 -0.54088,0.52021 -0.32384,0.16536 -0.79237,0.16536 -0.59256,0 -0.94396,-0.33073 -0.34796,-0.33417 -0.34796,-0.89228 0,-0.65112 0.43409,-0.98185 0.43752,-0.33073 1.30224,-0.33073 h 0.88884 v -0.062 q 0,-0.43753 -0.28939,-0.67524 -0.28594,-0.24116 -0.80615,-0.24116 -0.33073,0 -0.64424,0.0792 -0.3135,0.0792 -0.60289,0.23771 v -0.58567 q 0.34796,-0.13436 0.67524,-0.19981 0.32728,-0.0689 0.63734,-0.0689 0.83716,0 1.25057,0.43408 0.41342,0.43408 0.41342,1.31603 z"
         id="path47318" />
      <path
         d="m 115.74183,132.31826 h 0.6339 v 5.36057 h -0.6339 z"
         id="path47320" />
      <path
         d="m 122.7216,133.96846 v 0.59256 q -0.26872,-0.14814 -0.54088,-0.22049 -0.26872,-0.0758 -0.54433,-0.0758 -0.61667,0 -0.95773,0.39274 -0.34107,0.3893 -0.34107,1.09554 0,0.70625 0.34107,1.09899 0.34106,0.3893 0.95773,0.3893 0.27561,0 0.54433,-0.0724 0.27216,-0.0758 0.54088,-0.22393 v 0.58566 q -0.26527,0.12403 -0.55122,0.18604 -0.2825,0.062 -0.60289,0.062 -0.87161,0 -1.38493,-0.54777 -0.51332,-0.54777 -0.51332,-1.47795 0,-0.94395 0.51677,-1.48483 0.52021,-0.54088 1.42282,-0.54088 0.29283,0 0.57189,0.062 0.27905,0.0586 0.54088,0.17914 z"
         id="path47322" />
      <path
         d="m 127.03141,135.34995 v 2.32888 h -0.6339 v -2.30821 q 0,-0.54777 -0.21359,-0.81994 -0.2136,-0.27216 -0.64079,-0.27216 -0.51332,0 -0.8096,0.32729 -0.29628,0.32728 -0.29628,0.89228 v 2.18074 h -0.63734 v -5.36057 h 0.63734 v 2.10151 q 0.22738,-0.34795 0.53399,-0.52021 0.31006,-0.17225 0.71314,-0.17225 0.6649,0 1.00597,0.41341 0.34106,0.40996 0.34106,1.20923 z"
         id="path47324" />
      <path
         d="m 130.04932,135.73924 q -0.76826,0 -1.06454,0.1757 -0.29628,0.1757 -0.29628,0.59945 0,0.33762 0.22049,0.53744 0.22393,0.19637 0.60634,0.19637 0.5271,0 0.84405,-0.37207 0.32039,-0.37552 0.32039,-0.99564 v -0.14125 z m 1.26435,-0.26182 v 2.20141 h -0.6339 v -0.58566 q -0.21704,0.3514 -0.54088,0.52021 -0.32384,0.16536 -0.79237,0.16536 -0.59256,0 -0.94396,-0.33073 -0.34795,-0.33417 -0.34795,-0.89228 0,-0.65112 0.43408,-0.98185 0.43753,-0.33073 1.30225,-0.33073 h 0.88883 v -0.062 q 0,-0.43753 -0.28939,-0.67524 -0.28594,-0.24116 -0.80615,-0.24116 -0.33073,0 -0.64423,0.0792 -0.31351,0.0792 -0.6029,0.23771 v -0.58567 q 0.34796,-0.13436 0.67524,-0.19981 0.32729,-0.0689 0.63735,-0.0689 0.83716,0 1.25057,0.43408 0.41341,0.43408 0.41341,1.31603 z"
         id="path47326" />
      <path
         d="m 135.82675,135.34995 v 2.32888 h -0.6339 v -2.30821 q 0,-0.54777 -0.2136,-0.81994 -0.21359,-0.27216 -0.64079,-0.27216 -0.51332,0 -0.80959,0.32729 -0.29628,0.32728 -0.29628,0.89228 v 2.18074 h -0.63735 v -3.85851 h 0.63735 v 0.59945 q 0.22737,-0.34795 0.53399,-0.52021 0.31006,-0.17225 0.71313,-0.17225 0.66491,0 1.00597,0.41341 0.34107,0.40996 0.34107,1.20923 z"
         id="path47328" />
      <path
         d="m 140.29848,135.34995 v 2.32888 h -0.63389 v -2.30821 q 0,-0.54777 -0.2136,-0.81994 -0.2136,-0.27216 -0.64079,-0.27216 -0.51332,0 -0.8096,0.32729 -0.29628,0.32728 -0.29628,0.89228 v 2.18074 h -0.63734 v -3.85851 h 0.63734 v 0.59945 q 0.22738,-0.34795 0.53399,-0.52021 0.31006,-0.17225 0.71314,-0.17225 0.6649,0 1.00597,0.41341 0.34106,0.40996 0.34106,1.20923 z"
         id="path47330" />
      <path
         d="m 144.86324,135.5911 v 0.31006 h -2.91456 q 0.0413,0.65457 0.39275,0.99908 0.35484,0.34107 0.98529,0.34107 0.36518,0 0.70625,-0.0896 0.34451,-0.0896 0.68213,-0.26871 v 0.59944 q -0.34107,0.1447 -0.69936,0.22049 -0.35829,0.0758 -0.72691,0.0758 -0.92329,0 -1.46417,-0.53743 -0.53743,-0.53744 -0.53743,-1.45384 0,-0.9474 0.50987,-1.50206 0.51332,-0.5581 1.38148,-0.5581 0.7786,0 1.2299,0.50298 0.45476,0.49954 0.45476,1.36081 z m -0.6339,-0.18603 q -0.007,-0.52021 -0.29283,-0.83027 -0.2825,-0.31006 -0.75103,-0.31006 -0.53055,0 -0.85094,0.29972 -0.31695,0.29973 -0.36518,0.84405 z"
         id="path47332" />
      <path
         d="m 145.90366,132.31826 h 0.6339 v 5.36057 h -0.6339 z"
         id="path47334" />
    </g>
    <text
       xml:space="preserve"
       style="font-style:normal;font-weight:normal;font-size:4.54925px;line-height:1.25;font-family:sans-serif;fill:#000000;fill-opacity:1;stroke:none;stroke-width:0.113731"
       x="-32.211163"
       y="111.92091"
       id="text55061"
       transform="matrix(0.73897093,-0.67412043,0.80535937,0.61855044,0,0)"
       inkscape:export-filename="/home/bogfootlj/Notes/PhDNotes/PhDTopicDefenseAbstract/Seminar/Presentation/Images/EntanglementSwapping.png"
       inkscape:export-xdpi="96"
       inkscape:export-ydpi="96"><tspan
         sodipodi:role="line"
         id="tspan55059"
         style="stroke-width:0.113731"
         x="-32.211163"
         y="111.92091">Initial state</tspan><tspan
         sodipodi:role="line"
         style="stroke-width:0.113731"
         x="-32.211163"
         y="117.60747"
         id="tspan55063" /></text>
    <text
       xml:space="preserve"
       style="font-style:normal;font-weight:normal;font-size:4.99058px;line-height:1.25;font-family:sans-serif;fill:#000000;fill-opacity:1;stroke:none;stroke-width:0.124765"
       x="22.462868"
       y="208.9259"
       id="text55367"
       transform="matrix(0.28172067,-0.99593445,0.91758734,0.30577506,0,0)"
       inkscape:export-filename="/home/bogfootlj/Notes/PhDNotes/PhDTopicDefenseAbstract/Seminar/Presentation/Images/EntanglementSwapping.png"
       inkscape:export-xdpi="96"
       inkscape:export-ydpi="96"><tspan
         sodipodi:role="line"
         id="tspan55365"
         style="stroke-width:0.124765"
         x="22.462868"
         y="208.9259">Swapped</tspan><tspan
         sodipodi:role="line"
         style="stroke-width:0.124765"
         x="22.462868"
         y="215.16412"
         id="tspan55369">state</tspan><tspan
         sodipodi:role="line"
         style="stroke-width:0.124765"
         x="22.462868"
         y="221.40236"
         id="tspan55371" /></text>
    <text
       xml:space="preserve"
       style="font-style:normal;font-weight:normal;font-size:5.00383px;line-height:1.25;font-family:sans-serif;fill:#000000;fill-opacity:1;stroke:none;stroke-width:0.208493"
       x="84.010536"
       y="50.959427"
       id="text57127"
       transform="scale(1.0097498,0.99034433)"
       inkscape:export-filename="/home/bogfootlj/Notes/PhDNotes/PhDTopicDefenseAbstract/Seminar/Presentation/Images/EntanglementSwapping.png"
       inkscape:export-xdpi="96"
       inkscape:export-ydpi="96"><tspan
         sodipodi:role="line"
         id="tspan57125"
         style="font-size:5.00383px;stroke-width:0.208493"
         x="84.010536"
         y="50.959427">BSM</tspan><tspan
         sodipodi:role="line"
         style="font-size:5.00383px;stroke-width:0.208493"
         x="84.010536"
         y="57.214218"
         id="tspan57129">on 1 </tspan><tspan
         sodipodi:role="line"
         style="font-size:5.00383px;stroke-width:0.208493"
         x="84.010536"
         y="63.469002"
         id="tspan60503">and 2</tspan></text>
    <text
       xml:space="preserve"
       style="font-style:normal;font-weight:normal;font-size:8.33969px;line-height:1.25;font-family:sans-serif;fill:#000000;fill-opacity:1;stroke:none;stroke-width:0.208493"
       x="180.95712"
       y="55.680504"
       id="text62109"
       transform="scale(1.0097498,0.99034433)"
       inkscape:export-filename="/home/bogfootlj/Notes/PhDNotes/PhDTopicDefenseAbstract/Seminar/Presentation/Images/EntanglementSwapping.png"
       inkscape:export-xdpi="96"
       inkscape:export-ydpi="96"><tspan
         sodipodi:role="line"
         id="tspan62107"
         style="stroke-width:0.208493"
         x="180.95712"
         y="55.680504" /></text>
    <g
       inkscape:label=""
       transform="matrix(0.59269749,0,0,0.52468652,124.9663,15.718397)"
       id="g72716"
       inkscape:export-filename="/home/bogfootlj/Notes/PhDNotes/PhDTopicDefenseAbstract/Seminar/Presentation/Images/EntanglementSwapping.png"
       inkscape:export-xdpi="96"
       inkscape:export-ydpi="96">
      <g
         id="g7558">
        <g
           style="fill:#000000;fill-opacity:1"
           id="g3209">
          <use
             xlink:href="#symbol3522"
             x="93.876999"
             y="79.445"
             id="use5893"
             width="100%"
             height="100%" />
        </g>
        <g
           style="fill:#000000;fill-opacity:1"
           id="g4702">
          <use
             xlink:href="#symbol7645"
             x="91.925003"
             y="81.962997"
             id="use9872"
             width="100%"
             height="100%" />
        </g>
      </g>
    </g>
    <text
       xml:space="preserve"
       style="font-style:normal;font-weight:normal;font-size:5.55982px;line-height:1.25;font-family:sans-serif;fill:#000000;fill-opacity:1;stroke:none;stroke-width:0.208493"
       x="184.78664"
       y="59.072182"
       id="text73979"
       transform="scale(1.0097498,0.99034433)"
       inkscape:export-filename="/home/bogfootlj/Notes/PhDNotes/PhDTopicDefenseAbstract/Seminar/Presentation/Images/EntanglementSwapping.png"
       inkscape:export-xdpi="96"
       inkscape:export-ydpi="96"><tspan
         sodipodi:role="line"
         id="tspan73977"
         style="font-size:5.55982px;stroke-width:0.208493"
         x="184.78664"
         y="59.072182">on 3</tspan></text>
    <path
       style="fill:none;stroke:#000000;stroke-width:0.264583px;stroke-linecap:butt;stroke-linejoin:miter;stroke-opacity:1;marker-start:url(#Arrow1Lstart);marker-end:url(#marker85266)"
       d="m 9.6236097,64.119051 c 2.8020803,-2.84096 5.2122733,-4.98422 8.0939163,-7.029077 1.814891,-1.287878 3.569738,-2.659785 5.307948,-4.049416 2.163753,-1.729838 1.510914,-1.576165 3.820943,-3.102983 4.65111,-3.074157 9.716912,-5.554379 14.452882,-8.485164 1.089787,-0.674399 2.096344,-1.477769 3.188179,-2.148842 4.933093,-3.032025 0.64675,-0.08659 5.484495,-2.859538 0.859343,-0.492566 1.637078,-1.116991 2.482353,-1.633328 2.216181,-1.353762 4.497083,-2.610101 6.722112,-3.949515 2.019596,-1.215744 3.927255,-2.585336 6.020641,-3.688725 3.26335,-1.720057 6.618939,-3.225681 10.002547,-4.671915 2.182646,-0.932915 4.20961,-2.375252 6.417844,-3.214195 2.222355,-0.844312 4.672695,-1.441096 6.990813,-1.94496 1.470663,-0.319664 3.002783,-0.313426 4.473199,-0.62842 3.816112,-0.817491 7.760688,-1.133414 11.651268,-1.423204 3.09899,-0.230828 6.19928,-0.605616 9.30197,-0.800624 1.86019,-0.116914 3.76343,0 5.62928,0 h 10.00853 c 1.57563,0 3.21093,0.119187 4.7822,0 1.35166,-0.102529 2.73399,-0.06152 4.08146,-0.184015 0.42937,-0.06134 0.85874,-0.122677 1.28811,-0.184015 0.18407,-0.06136 0.36014,-0.156634 0.55222,-0.184076 2.63786,-0.376859 5.36585,-0.393724 8.02161,-0.612151 0.94388,0.06018 1.83578,-0.284408 2.76022,-0.368027 1.54266,-0.139544 3.20188,0 4.74728,0 1.65657,0 3.36687,-0.117991 5.01873,0 0.96904,0.01929 1.90474,0.322167 2.86654,0.394607 2.01835,0.152019 4.04585,0.221552 6.06166,0.404807 1.5067,0.136973 2.84175,0.496565 4.26487,0.923499 0.96006,0.288018 0.71652,0.0442 1.47212,0.368031 0.75231,0.322421 1.47045,0.787918 2.20818,1.10409 0.77036,0.330152 1.63119,0.53912 2.39219,0.920073 0.32173,0.161057 0.59139,0.421857 0.9254,0.555588 0.80272,0.321397 1.75635,0.427958 2.578,0.736076 1.12547,0.42205 2.20678,0.998341 3.31227,1.47212 0.98966,0.424138 2.00077,0.748977 2.94424,1.288103 0.65711,0.375494 1.96889,1.160756 1.96889,1.160756 l 2.22296,1.301468 2.62375,1.217246"
       id="path84986"
       sodipodi:nodetypes="cssssssssssssssssssccscsscssssssssssccc"
       inkscape:export-filename="/home/bogfootlj/Notes/PhDNotes/PhDTopicDefenseAbstract/Seminar/Presentation/Images/EntanglementSwapping.png"
       inkscape:export-xdpi="96"
       inkscape:export-ydpi="96" />
    <text
       xml:space="preserve"
       style="font-style:normal;font-weight:normal;font-size:10.5833px;line-height:1.25;font-family:sans-serif;fill:#000000;fill-opacity:1;stroke:none;stroke-width:0.264583"
       x="17.250441"
       y="78.203903"
       id="text88959"
       inkscape:export-filename="/home/bogfootlj/Notes/PhDNotes/PhDTopicDefenseAbstract/Seminar/Presentation/Images/EntanglementSwapping.png"
       inkscape:export-xdpi="96"
       inkscape:export-ydpi="96"><tspan
         sodipodi:role="line"
         id="tspan88957"
         style="stroke-width:0.264583"
         x="17.250441"
         y="78.203903">0</tspan><tspan
         sodipodi:role="line"
         style="stroke-width:0.264583"
         x="17.250441"
         y="91.433029"
         id="tspan88961" /></text>
  </g>
</svg>
