<?xml version="1.0" encoding="UTF-8" standalone="no"?>
<!-- Created with Inkscape (http://www.inkscape.org/) -->

<svg
   width="210mm"
   height="297mm"
   viewBox="0 0 210 297"
   version="1.1"
   id="svg5"
   inkscape:version="1.1.2 (0a00cf5339, 2022-02-04)"
   sodipodi:docname="SPDC.svg"
   xmlns:inkscape="http://www.inkscape.org/namespaces/inkscape"
   xmlns:sodipodi="http://sodipodi.sourceforge.net/DTD/sodipodi-0.dtd"
   xmlns="http://www.w3.org/2000/svg"
   xmlns:svg="http://www.w3.org/2000/svg">
  <sodipodi:namedview
     id="namedview7"
     pagecolor="#ffffff"
     bordercolor="#666666"
     borderopacity="1.0"
     inkscape:pageshadow="2"
     inkscape:pageopacity="0.0"
     inkscape:pagecheckerboard="0"
     inkscape:document-units="mm"
     showgrid="false"
     inkscape:lockguides="false"
     inkscape:zoom="1.0556063"
     inkscape:cx="347.19383"
     inkscape:cy="390.77068"
     inkscape:window-width="1920"
     inkscape:window-height="1136"
     inkscape:window-x="0"
     inkscape:window-y="27"
     inkscape:window-maximized="1"
     inkscape:current-layer="layer1" />
  <defs
     id="defs2">
    <marker
       style="overflow:visible;"
       id="Arrow1Lend"
       refX="0.0"
       refY="0.0"
       orient="auto"
       inkscape:stockid="Arrow1Lend"
       inkscape:isstock="true">
      <path
         transform="scale(0.8) rotate(180) translate(12.5,0)"
         style="fill-rule:evenodd;fill:context-stroke;stroke:context-stroke;stroke-width:1.0pt;"
         d="M 0.0,0.0 L 5.0,-5.0 L -12.5,0.0 L 5.0,5.0 L 0.0,0.0 z "
         id="path8389" />
    </marker>
    <linearGradient
       id="linearGradient14000"
       inkscape:swatch="solid">
      <stop
         style="stop-color:#ff0000;stop-opacity:1;"
         offset="0"
         id="stop13998" />
    </linearGradient>
    <marker
       style="overflow:visible"
       id="Arrow1Lstart"
       refX="0.0"
       refY="0.0"
       orient="auto"
       inkscape:stockid="Arrow1Lstart"
       inkscape:isstock="true">
      <path
         transform="scale(0.8) translate(12.5,0)"
         style="fill-rule:evenodd;fill:context-stroke;stroke:context-stroke;stroke-width:1.0pt"
         d="M 0.0,0.0 L 5.0,-5.0 L -12.5,0.0 L 5.0,5.0 L 0.0,0.0 z "
         id="path8386" />
    </marker>
    <linearGradient
       id="linearGradient7404"
       inkscape:swatch="solid">
      <stop
         style="stop-color:#000000;stop-opacity:1;"
         offset="0"
         id="stop7402" />
    </linearGradient>
    <marker
       style="overflow:visible"
       id="Arrow1Lstart-6"
       refX="0"
       refY="0"
       orient="auto"
       inkscape:stockid="Arrow1Lstart"
       inkscape:isstock="true">
      <path
         transform="matrix(0.8,0,0,0.8,10,0)"
         style="fill:context-stroke;fill-rule:evenodd;stroke:context-stroke;stroke-width:1pt"
         d="M 0,0 5,-5 -12.5,0 5,5 Z"
         id="path8386-2" />
    </marker>
    <marker
       style="overflow:visible"
       id="Arrow1Lstart-6-1"
       refX="0"
       refY="0"
       orient="auto"
       inkscape:stockid="Arrow1Lstart"
       inkscape:isstock="true">
      <path
         transform="matrix(0.8,0,0,0.8,10,0)"
         style="fill:context-stroke;fill-rule:evenodd;stroke:context-stroke;stroke-width:1pt"
         d="M 0,0 5,-5 -12.5,0 5,5 Z"
         id="path8386-2-2" />
    </marker>
    <marker
       style="overflow:visible"
       id="Arrow1Lstart-0"
       refX="0"
       refY="0"
       orient="auto"
       inkscape:stockid="Arrow1Lstart"
       inkscape:isstock="true">
      <path
         transform="matrix(0.8,0,0,0.8,10,0)"
         style="fill:context-stroke;fill-rule:evenodd;stroke:context-stroke;stroke-width:1pt"
         d="M 0,0 5,-5 -12.5,0 5,5 Z"
         id="path8386-9" />
    </marker>
  </defs>
  <g
     inkscape:label="Layer 1"
     inkscape:groupmode="layer"
     id="layer1">
    <path
       style="fill:none;stroke:#7a0000;stroke-width:2.5;stroke-linecap:butt;stroke-linejoin:miter;stroke-miterlimit:4;stroke-dasharray:none;stroke-opacity:1;marker-start:url(#Arrow1Lstart)"
       d="m 170.32451,29.086413 0.56577,45.436016 c 0,0 26.97787,7.351845 26.84202,18.152236 -0.2165,17.211795 -49.95084,0.22379 -49.85174,17.371545 0.0993,17.18852 49.73335,0.47243 49.50706,18.36421 -0.23422,18.5193 -49.70356,-0.50112 -50.31284,17.21382 -0.62614,18.20494 51.23483,3.00557 50.3669,21.20058 -0.84462,17.70643 -50.55474,-1.85334 -50.7557,15.87209 -0.20216,17.83172 51.19162,-0.70488 50.68495,17.12078 -0.49219,17.31623 -50.10163,13.80791 -50.10163,13.80791"
       id="path2715"
       sodipodi:nodetypes="ccsssssssc"
       inkscape:export-filename="/home/bogfootlj/Notes/PhDNotes/PhDTopicDefenseAbstract/Seminar/Presentation/Images/SPDC.png"
       inkscape:export-xdpi="96.03212"
       inkscape:export-ydpi="96.03212" />
    <path
       style="fill:none;stroke:#7a0000;stroke-width:2.5;stroke-linecap:butt;stroke-linejoin:miter;stroke-miterlimit:4;stroke-dasharray:none;stroke-opacity:1;marker-start:url(#Arrow1Lstart-0)"
       d="m 109.87786,29.180253 0.56577,45.436016 c 0,0 26.97787,7.351845 26.84202,18.152236 -0.2165,17.211795 -49.950846,0.22379 -49.851746,17.371545 0.0993,17.18852 49.733356,0.47243 49.507066,18.36421 -0.23422,18.51929 -49.703566,-0.50112 -50.312846,17.21381 -0.62614,18.20494 51.234836,3.00558 50.366906,21.20058 -0.84462,17.70643 -50.554746,-1.85334 -50.755706,15.87209 -0.20216,17.83172 51.191626,-0.70488 50.684956,17.12078 -0.49219,17.31623 -50.101636,13.80791 -50.101636,13.80791"
       id="path2715-3"
       sodipodi:nodetypes="ccsssssssc"
       inkscape:export-filename="/home/bogfootlj/Notes/PhDNotes/PhDTopicDefenseAbstract/Seminar/Presentation/Images/SPDC.png"
       inkscape:export-xdpi="96.03212"
       inkscape:export-ydpi="96.03212" />
    <path
       style="fill:none;stroke:#bc0000;stroke-width:1.47173;stroke-linecap:butt;stroke-linejoin:miter;stroke-miterlimit:4;stroke-dasharray:none;stroke-opacity:1;marker-start:url(#Arrow1Lstart-6)"
       d="m 26.316631,86.117728 c 0.04691,5.998296 -0.440928,13.898342 -0.04675,23.569222 0,0 21.673832,3.17135 21.564695,7.83028 -0.173935,7.4246 -40.1301719,0.0965 -40.0505575,7.49351 0.079776,7.41456 39.9554405,0.20379 39.7736395,7.92171 -0.188168,7.98861 -39.9315085,-0.21616 -40.4209971,7.42547 -0.5030323,7.85302 41.1617211,1.29651 40.4644301,9.14523 -0.678556,7.63797 -40.6153389,-0.79947 -40.7767857,6.8467 -0.1624148,7.69202 41.1270127,-0.30406 40.7199457,7.38534 -0.395423,7.46965 -40.2513096,5.95627 -40.2513096,5.95627"
       id="path2715-9"
       sodipodi:nodetypes="ccsssssssc"
       inkscape:export-filename="/home/bogfootlj/Notes/PhDNotes/PhDTopicDefenseAbstract/Seminar/Presentation/Images/SPDC.png"
       inkscape:export-xdpi="96.03212"
       inkscape:export-ydpi="96.03212" />
    <path
       style="opacity:1;fill:#bc0000;fill-opacity:1;stroke:#bc0000;stroke-width:2.5;stroke-miterlimit:4;stroke-dasharray:none;stroke-opacity:1"
       id="path13234"
       d="m 7.6190987,7.2288228 c -0.2642656,1.845291 0.067778,3.6549832 0.5385639,5.4347082 0.6885026,2.23755 1.9430374,4.242814 3.3380414,6.103395 0.97311,1.152864 1.877972,1.73889 3.333117,2.077506 0.61543,0.115506 1.181384,0.02914 1.722506,-0.295844 2.643346,-1.587497 3.456951,-1.587458 4.674794,-3.547983 0.880311,-1.441246 1.039892,-3.114842 1.174208,-4.759595 0.07892,-1.566817 0.253774,-3.1264732 0.36794,-4.6909672 0.111515,-2.762112 0.87462,-2.153798 -3.427052,0.362178 0.01352,0.876572 0.01201,1.753306 0.01102,2.6299602 -5.03e-4,0.902222 -0.0023,1.804432 -0.0065,2.706648 -0.03312,0.678617 -0.02161,1.329762 0.221115,1.969233 0.263713,0.686184 0.669461,1.314244 1.085718,1.91742 0.543962,0.668991 1.201776,1.232384 1.883145,1.755746 0.677081,0.540578 1.355493,1.077311 2.120061,1.489067 0.64029,0.297629 1.323934,0.468153 2.027617,0.381145 1.806456,-0.67047 3.642783,-1.56124 4.99192,-2.957602 0.213583,-0.221057 0.663872,-0.76522 0.859817,-0.998371 0.918255,-1.006766 1.506783,-2.244765 2.143985,-3.436162 0.709763,-1.256141 1.084704,-2.65194 1.518634,-4.0168012 0.444585,-1.278668 0.852514,-2.571121 1.221367,-3.873834 0,0 -3.545388,1.685976 -3.545388,1.685976 v 0 c -0.359389,1.293466 -0.753022,2.57815 -1.194641,3.8459462 -0.432512,1.351894 -0.847032,2.718625 -1.56024,3.956463 -0.638511,1.177051 -1.252233,2.378212 -2.181402,3.360123 -0.307422,0.348411 -0.544973,0.63826 -0.891069,0.949399 -0.145728,0.131011 -0.633072,0.457592 -0.459402,0.366821 5.396408,-2.820527 3.407879,-1.931739 2.239608,-1.283316 -0.625104,0.24393 -1.261186,0.08289 -1.874739,-0.146005 -0.76794,-0.363249 -1.427308,-0.894046 -2.085261,-1.425655 -0.653203,-0.495395 -1.283719,-1.022455 -1.815562,-1.650764 -0.395044,-0.577408 -0.780319,-1.178237 -1.021346,-1.837918 -0.203055,-0.599061 -0.180412,-1.214411 -0.170405,-1.84106 -0.0039,-0.900367 -0.0051,-1.8007232 -0.0037,-2.7010952 8.73e-4,-0.882168 0.0042,-1.764334 0.01157,-2.646473 -4.213091,1.77999 -3.446027,0.400934 -3.59516,3.191079 -0.09431,1.5575382 -0.253172,3.1099992 -0.339297,4.6680062 -0.147773,1.606431 -0.358269,3.219839 -1.27884,4.593095 -0.135786,0.189053 -0.258194,0.388475 -0.40736,0.567161 -0.147927,0.177205 -0.692635,0.591066 -0.481542,0.497666 0.982177,-0.434579 1.877112,-1.045041 2.831593,-1.537481 0.178447,-0.09206 -0.32221,0.24294 -0.500699,0.33492 -0.492604,0.253857 -0.519954,0.189699 -1.05178,0.181983 -1.409596,-0.256257 -2.251087,-0.737153 -3.222288,-1.819748 -1.4103,-1.79028 -2.651593,-3.743177 -3.292805,-5.950048 -0.437486,-1.7628502 -0.735613,-3.5473722 -0.357638,-5.3548862 0,0 -3.5522688,1.745964 -3.5522688,1.745964 z"
       inkscape:export-filename="/home/bogfootlj/Notes/PhDNotes/PhDTopicDefenseAbstract/Seminar/Presentation/Images/SPDC.png"
       inkscape:export-xdpi="96.03212"
       inkscape:export-ydpi="96.03212" />
    <path
       style="opacity:1;fill:#bc0000;fill-opacity:1;stroke:#bc0000;stroke-width:2.5;stroke-miterlimit:4;stroke-dasharray:none;stroke-opacity:1"
       id="path13236"
       d="m 38.100834,17.732599 c -0.106133,1.965597 -0.571347,3.885274 -0.961313,5.807559 -0.244793,1.235797 -0.441148,2.48 -0.61009,3.728138 0,0 3.495008,-1.72602 3.495008,-1.72602 v 0 c 0.142952,-1.230519 0.316699,-2.457482 0.562933,-3.672221 0.402053,-1.953202 0.850501,-3.901837 1.046742,-5.890099 0,0 -3.53328,1.752643 -3.53328,1.752643 z"
       inkscape:export-filename="/home/bogfootlj/Notes/PhDNotes/PhDTopicDefenseAbstract/Seminar/Presentation/Images/SPDC.png"
       inkscape:export-xdpi="96.03212"
       inkscape:export-ydpi="96.03212" />
    <path
       style="opacity:1;fill:#bc0000;fill-opacity:1;stroke:#bc0000;stroke-width:2.5;stroke-miterlimit:4;stroke-dasharray:none;stroke-opacity:1"
       id="path13238"
       d="m 38.973411,18.1397 c 1.84431,-0.357886 3.714192,-0.554125 5.58506,-0.706626 1.230982,-0.157329 2.266839,-0.0258 3.368826,0.529127 0.668422,0.382379 1.061469,0.918814 1.130001,1.686018 -0.104349,0.881581 -0.763476,1.483331 -1.46114,1.953755 5.450038,-3.167169 3.070945,-1.668521 1.741884,-1.213035 -0.554656,0.190087 -1.117989,0.306533 -1.693396,0.410027 -1.050177,0.157895 -2.114191,0.162901 -3.173622,0.171209 -0.608248,-0.01527 -1.209691,-0.112945 -1.810385,-0.201173 0,0 -3.223186,2.273567 -3.223186,2.273567 v 0 c 0.619162,0.08353 1.237062,0.178898 1.859471,0.235807 1.07206,-7.93e-4 2.147882,5.29e-4 3.214116,-0.125521 2.569146,-0.365021 4.511992,-1.48218 6.735034,-3.002833 0.725681,-0.60358 1.330661,-1.345284 1.302377,-2.339861 -0.150082,-0.873741 -0.560149,-1.54211 -1.332375,-2.007663 -1.188768,-0.616292 -2.177066,-0.857533 -3.533735,-0.679577 -1.857203,0.162716 -3.714155,0.355584 -5.554914,0.654185 0,0 -3.154016,2.362594 -3.154016,2.362594 z"
       inkscape:export-filename="/home/bogfootlj/Notes/PhDNotes/PhDTopicDefenseAbstract/Seminar/Presentation/Images/SPDC.png"
       inkscape:export-xdpi="96.03212"
       inkscape:export-ydpi="96.03212" />
    <path
       style="opacity:1;fill:#7a0000;fill-opacity:1;stroke:#7a0000;stroke-width:2.5;stroke-miterlimit:4;stroke-dasharray:none;stroke-opacity:1"
       id="path13240"
       d="m 86.706862,6.2469349 c -1.036166,2.0576889 -1.519428,4.3178251 -1.851525,6.5797261 -0.171024,2.120741 -0.235786,4.392077 0.665819,6.377761 0.114874,0.252995 0.271272,0.484996 0.406911,0.727494 0.833323,1.053982 1.827916,1.522731 3.119104,0.826806 1.430062,-0.770776 2.812722,-1.626438 4.21908,-2.439658 1.299739,-0.959266 2.399747,-2.156696 3.189179,-3.569824 0.284416,-0.509122 0.665252,-1.392911 0.907632,-1.936516 0.528643,-1.342734 0.862325,-2.755154 1.075301,-4.179892 0.13548,-0.892244 0.154908,-1.7946735 0.21495,-2.6933188 -0.77788,-1.3710507 -0.197908,-0.4908148 -3.72305,1.8401217 -0.121356,0.080245 -0.05486,0.2858093 -0.08691,0.4277241 -0.163452,0.7238315 -0.357307,1.4379885 -0.515327,2.163475 -0.387471,1.85254 -0.509,3.73935 -0.45603,5.626696 0.0701,1.760044 0.85539,3.296383 1.876906,4.687129 0.744025,0.909792 1.684327,1.553369 2.797564,1.907546 0.598826,0.124095 1.288376,0.244831 1.860104,-0.06536 3.71301,-2.014519 2.83017,-1.306171 4.42348,-2.69118 1.24462,-1.478877 1.83803,-3.351702 2.34327,-5.185414 0.52922,-1.908585 0.70224,-3.882696 0.99601,-5.8330243 0.20003,-0.9085042 0.21041,-1.855516 0.44287,-2.7553758 0,0 -3.55259,1.7178023 -3.55259,1.7178023 v 0 c -0.15336,0.9120915 -0.2167,1.8381569 -0.37161,2.7506198 -0.25257,1.936895 -0.45949,3.884029 -0.99158,5.771479 -0.52854,1.789367 -1.12452,3.6482 -2.48802,4.988206 -1.37223,1.016925 -0.97536,0.687539 2.28399,-1.189172 0.14786,-0.08514 -0.29825,0.168652 -0.45802,0.228562 -0.36395,0.136478 -0.47638,0.110931 -0.85387,0.07763 -0.12756,-0.01125 -0.25424,-0.03095 -0.38136,-0.04642 -1.07645,-0.251166 -1.985857,-0.809928 -2.704288,-1.66117 -1.005144,-1.315942 -1.722371,-2.784911 -1.773105,-4.471642 -0.05086,-1.86043 0.08207,-3.718995 0.499303,-5.5380749 0.06871,-0.2820723 0.132718,-0.5653305 0.206124,-0.8462166 0.01691,-0.064734 0.331017,-1.1812765 0.378939,-1.3223462 0.04191,-0.123366 0.270965,-0.4092856 0.149971,-0.3609544 -3.52152,1.4066731 -3.096043,2.9007773 -3.444841,1.5697075 0.0032,0.8775933 -0.06522,1.7549643 -0.185353,2.6240546 -0.229497,1.383294 -0.537856,2.763222 -1.071288,4.06427 -0.284602,0.633317 -0.551749,1.272683 -0.907891,1.871496 -0.818377,1.375996 -1.950442,2.521918 -3.272589,3.417301 5.243285,-2.920172 2.07949,-0.902032 1.054206,-0.87193 -0.638805,0.01875 -1.03949,-0.409618 -1.434976,-0.846879 -0.132765,-0.220479 -0.286303,-0.429714 -0.39829,-0.661437 -0.919713,-1.903015 -0.817383,-4.122321 -0.642049,-6.166276 0.365895,-2.2615344 0.891416,-4.5266418 2.06643,-6.5222648 0,0 -3.612581,1.6087447 -3.612581,1.6087447 z"
       inkscape:export-filename="/home/bogfootlj/Notes/PhDNotes/PhDTopicDefenseAbstract/Seminar/Presentation/Images/SPDC.png"
       inkscape:export-xdpi="96.03212"
       inkscape:export-ydpi="96.03212" />
    <path
       style="opacity:1;fill:#7a0000;fill-opacity:1;stroke:#7a0000;stroke-width:2.5;stroke-miterlimit:4;stroke-dasharray:none;stroke-opacity:1"
       id="path13242"
       d="m 121.79901,6.5753538 c -2.29878,-0.58829 -4.84051,0.813396 -6.29323,2.57891 -0.59452,1.0033292 -0.7388,1.6179872 -0.22254,2.6847862 0.48254,0.74816 1.19124,1.197055 2.02022,1.468956 1.7422,0.327326 3.77145,-0.815841 4.66824,-2.323746 0.15213,-0.2558 0.22392,-0.530571 0.31492,-0.810302 0.20814,-0.7695922 0.24097,-1.5679012 0.25611,-2.3603012 -0.0345,-0.902369 -0.45751,-1.172403 -1.27838,-1.393121 -0.13884,-0.02335 -0.27768,-0.0467 -0.41652,-0.07005 0,0 -3.22133,2.271851 -3.22133,2.271851 v 0 c 0.13201,0.01503 0.26402,0.03006 0.39603,0.04509 0.69727,0.124944 0.99088,0.14247 0.99591,0.932108 -0.0191,0.7529532 -0.0542,1.5154792 -0.30622,2.2331242 -0.12889,0.283756 -0.16796,0.438232 -0.38879,0.66372 -0.0799,0.08155 -0.3736,0.260543 -0.27283,0.206943 5.99504,-3.1885162 3.82922,-1.634487 2.51026,-1.62591 -0.75479,-0.182436 -1.40224,-0.52208 -1.85241,-1.1804832 -0.40871,-0.869237 -0.15598,-1.521997 0.42658,-2.248942 1.18065,-0.983305 0.85569,-0.674881 -2.56809,1.34169 -0.1566,0.09224 0.32644,-0.165094 0.50145,-0.214165 0.24484,-0.06865 0.76969,-0.110592 1.03291,-0.077 0.14884,0.01899 0.2901,0.07683 0.43516,0.115248 0,0 3.26255,-2.238394 3.26255,-2.238394 z"
       inkscape:export-filename="/home/bogfootlj/Notes/PhDNotes/PhDTopicDefenseAbstract/Seminar/Presentation/Images/SPDC.png"
       inkscape:export-xdpi="96.03212"
       inkscape:export-ydpi="96.03212" />
    <path
       style="opacity:1;fill:#7a0000;fill-opacity:1;stroke:#7a0000;stroke-width:2.5;stroke-miterlimit:4;stroke-dasharray:none;stroke-opacity:1"
       id="path13244"
       d="m 116.12224,19.162904 c -0.53113,1.431848 -0.89143,2.899508 -1.14438,4.402755 -0.24744,1.471391 -0.26634,2.944267 -0.145,4.425721 0.0574,0.84338 0.42858,1.460938 0.93945,2.097562 0.41268,0.498912 0.94016,0.842836 1.50855,1.134769 0,0 3.31417,-2.176596 3.31417,-2.176596 v 0 c -0.52652,-0.267318 -1.0475,-0.511792 -1.43061,-0.986356 -0.48566,-0.604742 -0.78604,-1.070597 -0.85311,-1.880133 -0.13453,-1.443963 -0.10218,-2.882875 0.15051,-4.315806 0.26579,-1.503098 0.67663,-2.963307 1.23337,-4.386172 0,0 -3.57295,1.684256 -3.57295,1.684256 z"
       inkscape:export-filename="/home/bogfootlj/Notes/PhDNotes/PhDTopicDefenseAbstract/Seminar/Presentation/Images/SPDC.png"
       inkscape:export-xdpi="96.03212"
       inkscape:export-ydpi="96.03212" />
    <path
       style="opacity:1;fill:#7a0000;fill-opacity:1;stroke:#7a0000;stroke-width:2.5;stroke-miterlimit:4;stroke-dasharray:none;stroke-opacity:1"
       id="path13248"
       d="m 148.33005,7.1768535 c -0.41605,2.1006086 -0.33923,4.2228985 -0.0937,6.3363245 0.32067,2.320817 1.00009,4.571457 2.35579,6.495992 1.11049,1.264975 1.58856,1.331129 3.13929,0.715851 2.49044,-1.270858 4.97682,-2.584852 6.95029,-4.585584 0.77688,-0.787613 1.30094,-1.44884 2.01431,-2.299473 1.11601,-1.4889 2.25382,-2.989343 3.10527,-4.6518187 0.31801,-0.6209156 0.54516,-1.2142578 0.80744,-1.8570651 0.47359,-1.0178616 0.5897,-2.1280691 0.82831,-3.2069582 -1.22792,0.6722695 -2.50795,1.2570854 -3.68377,2.0168084 -0.13745,0.088811 -0.0957,0.3134397 -0.15738,0.4650333 -0.0778,0.1912572 -0.17098,0.3758977 -0.26027,0.5620588 -0.35865,0.7477911 -0.68515,1.4873777 -0.98121,2.2630376 -0.60399,1.5639039 -1.05468,3.1810429 -1.50026,4.7955839 -0.27661,1.083368 -0.49889,2.179731 -0.26709,3.288128 0.15307,0.75354 0.66515,1.222188 1.30154,1.593781 1.15227,0.408935 2.39019,0.487843 3.60346,0.475979 0.75583,-0.09111 1.53312,-0.286382 2.20484,-0.659918 3.06864,-1.706437 3.57298,-1.765911 5.4148,-3.659816 1.29241,-1.582204 2.04596,-3.492828 2.72643,-5.3961433 0.54223,-1.5750981 0.92286,-3.1977581 1.36631,-4.8017694 0.0456,-0.1815949 0.0911,-0.3631898 0.1367,-0.5447845 0,0 -3.53607,1.6951492 -3.53607,1.6951492 v 0 c -0.0431,0.1775301 -0.0863,0.35506 -0.12942,0.5325901 -0.41507,1.5946548 -0.77761,3.2054747 -1.34466,4.7560889 -0.6743,1.870062 -1.43844,3.74337 -2.79068,5.237294 -1.30414,1.257219 -3.13881,2.354131 1.20164,-0.232815 0.22868,-0.136298 -0.47862,0.233721 -0.72302,0.339279 -0.23029,0.09947 -0.46081,0.200894 -0.70032,0.275477 -0.21887,0.06815 -0.44721,0.100996 -0.67081,0.151494 -1.15873,0.06189 -2.33029,-0.0319 -3.45543,-0.327445 -0.56488,-0.275259 -1.0009,-0.650777 -1.12591,-1.294526 -0.19711,-1.045651 0.0527,-2.086471 0.30474,-3.103412 0.43369,-1.601993 0.88535,-3.2034383 1.49772,-4.7480292 0.31288,-0.7715528 0.67043,-1.5074712 1.02252,-2.2607423 0.0924,-0.1977446 0.1813,-0.3972422 0.26465,-0.5989801 0.0647,-0.1566643 0.34259,-0.5218282 0.17944,-0.4758209 -1.19908,0.3381372 -2.30968,0.9348047 -3.46452,1.402207 -0.10504,1.0593824 -0.38622,2.089818 -0.77219,3.0807461 -0.95535,2.3172334 -2.28246,4.4275324 -3.88006,6.3624884 -0.97285,1.12688 -1.93219,2.230231 -3.0891,3.176102 -0.30324,0.247922 -1.30113,0.859267 -0.94252,0.70174 0.84376,-0.370637 1.60743,-0.901896 2.41382,-1.348035 0.2759,-0.152644 -0.54821,0.311686 -0.82232,0.467529 -1.31231,0.649863 -1.76772,0.861018 -2.83935,-0.282447 -1.38896,-1.822741 -2.03415,-4.0226 -2.33707,-6.276252 -0.21395,-2.0935298 -0.26036,-4.221836 0.30256,-6.2712006 0,0 -3.57476,1.6962731 -3.57476,1.6962731 z"
       inkscape:export-filename="/home/bogfootlj/Notes/PhDNotes/PhDTopicDefenseAbstract/Seminar/Presentation/Images/SPDC.png"
       inkscape:export-xdpi="96.03212"
       inkscape:export-ydpi="96.03212" />
    <path
       style="opacity:1;fill:#7a0000;fill-opacity:1;stroke:#7a0000;stroke-width:2.5;stroke-miterlimit:4;stroke-dasharray:none;stroke-opacity:1"
       id="path13250"
       d="m 187.48038,14.410075 c -1.05691,-0.772062 -2.1639,-1.471784 -3.22381,-2.239443 -0.73258,-0.535318 -1.5064,-1.018598 -2.34903,-1.359149 -1.92109,-0.384064 -3.86613,1.118247 -4.99369,2.650704 -0.39183,0.731816 -0.51792,1.5476 -0.5907,2.363112 -0.0524,0.775617 -0.0382,1.553497 -0.0361,2.330293 -0.031,0.741809 -0.003,1.462014 0.21913,2.173225 0.29721,0.762597 0.90792,1.298802 1.53697,1.789057 0.62832,0.454803 1.36472,0.716488 2.04424,1.080349 0.65038,0.322625 1.24877,0.7407 1.79163,1.221378 0.44156,0.349914 0.8171,0.743852 1.12467,1.213075 0.26877,0.450438 0.40544,0.921447 0.32751,1.438747 0.33481,0.09827 -0.94689,0.796044 -0.67183,0.632722 3.09529,-1.83785 4.30734,-2.296887 2.91197,-1.751292 -0.69636,0.169495 -1.42187,0.155597 -2.13426,0.159859 -0.88951,-0.0014 -1.77899,0.0025 -2.6685,-9.53e-4 -0.85207,0.0851 -1.58714,-0.101308 -2.36711,-0.414788 -0.84719,-0.356217 -1.64402,-0.812228 -2.46092,-1.230047 -0.39433,-0.213998 -0.78326,-0.434358 -1.16244,-0.673994 0,0 -3.31542,2.131642 -3.31542,2.131642 v 0 c 0.38776,0.250947 0.79085,0.468056 1.19076,0.699169 0.82277,0.428252 1.62985,0.881351 2.47673,1.261883 0.81547,0.336338 1.54986,0.661699 2.45978,0.53449 0.88421,5.29e-4 1.76829,0.01071 2.65247,0.01505 0.72995,1.01e-4 1.46133,-8.7e-5 2.18882,-0.06794 1.64192,-0.294704 0.36217,-0.03286 3.91856,-2.109623 0.33069,-0.193105 0.47145,-0.605624 0.53159,-0.955974 0.0216,-0.594646 -0.16198,-1.152309 -0.45861,-1.666257 -0.32204,-0.503577 -0.70446,-0.935376 -1.18473,-1.29771 -0.5529,-0.508641 -1.17284,-0.955571 -1.845,-1.292529 -0.65408,-0.381095 -1.37328,-0.62712 -2.01461,-1.030298 -0.56624,-0.43296 -1.1485,-0.88888 -1.4046,-1.580145 -0.18747,-0.678641 -0.18875,-1.369198 -0.17436,-2.069805 -0.001,-0.765256 -0.006,-1.532123 0.0573,-2.295383 0.0865,-0.760086 0.22059,-1.530488 0.69176,-2.157657 0.14043,-0.157314 0.6413,-0.539297 0.45622,-0.438249 -1.05705,0.577107 -2.09689,1.185173 -3.14534,1.777759 0.19011,-0.123938 0.26121,-0.199292 0.49434,-0.234027 0.091,-0.01356 0.184,0.0025 0.276,0.0038 0.84285,0.276643 1.60106,0.745506 2.33037,1.24382 1.05879,0.755387 2.16661,1.445117 3.1782,2.264907 0,0 3.34206,-2.119816 3.34206,-2.119816 z"
       inkscape:export-filename="/home/bogfootlj/Notes/PhDNotes/PhDTopicDefenseAbstract/Seminar/Presentation/Images/SPDC.png"
       inkscape:export-xdpi="96.03212"
       inkscape:export-ydpi="96.03212" />
    <path
       style="fill:none;stroke:#000000;stroke-width:2;stroke-linecap:butt;stroke-linejoin:miter;stroke-opacity:1;stroke-miterlimit:4;stroke-dasharray:none;fill-opacity:1"
       d="m 59.965587,18.554876 17.511315,0.163213"
       id="path14723"
       inkscape:export-filename="/home/bogfootlj/Notes/PhDNotes/PhDTopicDefenseAbstract/Seminar/Presentation/Images/SPDC.png"
       inkscape:export-xdpi="96.03212"
       inkscape:export-ydpi="96.03212" />
    <path
       style="fill:none;fill-opacity:1;stroke:#000000;stroke-width:2;stroke-linecap:butt;stroke-linejoin:miter;stroke-miterlimit:4;stroke-dasharray:none;stroke-opacity:1"
       d="m 59.539566,10.132679 17.608867,0.215138"
       id="path14725"
       inkscape:export-filename="/home/bogfootlj/Notes/PhDNotes/PhDTopicDefenseAbstract/Seminar/Presentation/Images/SPDC.png"
       inkscape:export-xdpi="96.03212"
       inkscape:export-ydpi="96.03212" />
    <path
       style="fill:none;stroke:#000000;stroke-width:2;stroke-linecap:butt;stroke-linejoin:miter;stroke-opacity:1;stroke-miterlimit:4;stroke-dasharray:none"
       d="m 125.92563,11.654944 15.71336,0.374998"
       id="path14909"
       inkscape:export-filename="/home/bogfootlj/Notes/PhDNotes/PhDTopicDefenseAbstract/Seminar/Presentation/Images/SPDC.png"
       inkscape:export-xdpi="96.03212"
       inkscape:export-ydpi="96.03212" />
    <path
       style="fill:none;stroke:#000000;stroke-width:2;stroke-linecap:butt;stroke-linejoin:miter;stroke-opacity:1;stroke-miterlimit:4;stroke-dasharray:none"
       d="M 134.71192,1.9546188 133.06291,22.346592"
       id="path14911"
       inkscape:export-filename="/home/bogfootlj/Notes/PhDNotes/PhDTopicDefenseAbstract/Seminar/Presentation/Images/SPDC.png"
       inkscape:export-xdpi="96.03212"
       inkscape:export-ydpi="96.03212" />
    <path
       style="fill:none;stroke:#000000;stroke-width:0.9;stroke-linecap:butt;stroke-linejoin:miter;stroke-miterlimit:4;stroke-dasharray:none;stroke-opacity:1;marker-end:url(#Arrow1Lend)"
       d="m 53.083903,140.63339 28.387282,0.21022"
       id="path15026"
       sodipodi:nodetypes="cc"
       inkscape:export-filename="/home/bogfootlj/Notes/PhDNotes/PhDTopicDefenseAbstract/Seminar/Presentation/Images/SPDC.png"
       inkscape:export-xdpi="96.03212"
       inkscape:export-ydpi="96.03212" />
  </g>
</svg>
