<?xml version="1.0" encoding="UTF-8" standalone="no"?>
<!-- Created with Inkscape (http://www.inkscape.org/) -->

<svg
   width="210mm"
   height="297mm"
   viewBox="0 0 210 297"
   version="1.1"
   id="svg5"
   inkscape:version="1.1.2 (0a00cf5339, 2022-02-04)"
   sodipodi:docname="SPDC.svg"
   inkscape:export-filename="/home/bogfootlj/Notes/PhDNotes/PhDTopicDefenseAbstract/Seminar/Presentation/Images/SPDC.png"
   inkscape:export-xdpi="200"
   inkscape:export-ydpi="200"
   xmlns:inkscape="http://www.inkscape.org/namespaces/inkscape"
   xmlns:sodipodi="http://sodipodi.sourceforge.net/DTD/sodipodi-0.dtd"
   xmlns:xlink="http://www.w3.org/1999/xlink"
   xmlns="http://www.w3.org/2000/svg"
   xmlns:svg="http://www.w3.org/2000/svg">
  <sodipodi:namedview
     id="namedview7"
     pagecolor="#ffffff"
     bordercolor="#666666"
     borderopacity="1.0"
     inkscape:pageshadow="2"
     inkscape:pageopacity="0.0"
     inkscape:pagecheckerboard="0"
     inkscape:document-units="mm"
     showgrid="false"
     inkscape:lockguides="false"
     inkscape:zoom="0.74642637"
     inkscape:cx="277.32139"
     inkscape:cy="591.485"
     inkscape:window-width="1920"
     inkscape:window-height="1016"
     inkscape:window-x="0"
     inkscape:window-y="27"
     inkscape:window-maximized="1"
     inkscape:current-layer="layer1" />
  <defs
     id="defs2">
    <marker
       style="overflow:visible;"
       id="Arrow1Lend"
       refX="0.0"
       refY="0.0"
       orient="auto"
       inkscape:stockid="Arrow1Lend"
       inkscape:isstock="true">
      <path
         transform="scale(0.8) rotate(180) translate(12.5,0)"
         style="fill-rule:evenodd;fill:context-stroke;stroke:context-stroke;stroke-width:1.0pt;"
         d="M 0.0,0.0 L 5.0,-5.0 L -12.5,0.0 L 5.0,5.0 L 0.0,0.0 z "
         id="path8389" />
    </marker>
    <linearGradient
       id="linearGradient14000"
       inkscape:swatch="solid">
      <stop
         style="stop-color:#ff0000;stop-opacity:1;"
         offset="0"
         id="stop13998" />
    </linearGradient>
    <marker
       style="overflow:visible"
       id="Arrow1Lstart"
       refX="0.0"
       refY="0.0"
       orient="auto"
       inkscape:stockid="Arrow1Lstart"
       inkscape:isstock="true">
      <path
         transform="scale(0.8) translate(12.5,0)"
         style="fill-rule:evenodd;fill:context-stroke;stroke:context-stroke;stroke-width:1.0pt"
         d="M 0.0,0.0 L 5.0,-5.0 L -12.5,0.0 L 5.0,5.0 L 0.0,0.0 z "
         id="path8386" />
    </marker>
    <linearGradient
       id="linearGradient7404"
       inkscape:swatch="solid">
      <stop
         style="stop-color:#000000;stop-opacity:1;"
         offset="0"
         id="stop7402" />
    </linearGradient>
    <marker
       style="overflow:visible"
       id="Arrow1Lstart-6"
       refX="0"
       refY="0"
       orient="auto"
       inkscape:stockid="Arrow1Lstart"
       inkscape:isstock="true">
      <path
         transform="matrix(0.8,0,0,0.8,10,0)"
         style="fill:context-stroke;fill-rule:evenodd;stroke:context-stroke;stroke-width:1pt"
         d="M 0,0 5,-5 -12.5,0 5,5 Z"
         id="path8386-2" />
    </marker>
    <marker
       style="overflow:visible"
       id="Arrow1Lstart-6-1"
       refX="0"
       refY="0"
       orient="auto"
       inkscape:stockid="Arrow1Lstart"
       inkscape:isstock="true">
      <path
         transform="matrix(0.8,0,0,0.8,10,0)"
         style="fill:context-stroke;fill-rule:evenodd;stroke:context-stroke;stroke-width:1pt"
         d="M 0,0 5,-5 -12.5,0 5,5 Z"
         id="path8386-2-2" />
    </marker>
    <marker
       style="overflow:visible"
       id="Arrow1Lstart-0"
       refX="0"
       refY="0"
       orient="auto"
       inkscape:stockid="Arrow1Lstart"
       inkscape:isstock="true">
      <path
         transform="matrix(0.8,0,0,0.8,10,0)"
         style="fill:context-stroke;fill-rule:evenodd;stroke:context-stroke;stroke-width:1pt"
         d="M 0,0 5,-5 -12.5,0 5,5 Z"
         id="path8386-9" />
    </marker>
    <g
       id="g6058">
      <symbol
         overflow="visible"
         id="symbol6863">
        <path
           style="stroke:none;"
           d=""
           id="path9850" />
      </symbol>
      <symbol
         overflow="visible"
         id="symbol5640">
        <path
           style="stroke:none;"
           d="M 6.03125 -3.703125 C 6.03125 -4.15625 5.859375 -4.40625 5.625 -4.40625 C 5.375 -4.40625 5.109375 -4.171875 5.109375 -3.9375 C 5.109375 -3.84375 5.15625 -3.734375 5.25 -3.640625 C 5.421875 -3.484375 5.609375 -3.21875 5.609375 -2.796875 C 5.609375 -2.40625 5.40625 -1.828125 5.109375 -1.375 C 4.8125 -0.953125 4.4375 -0.609375 3.96875 -0.609375 C 3.40625 -0.609375 3.09375 -0.96875 3 -1.5 C 3.109375 -1.765625 3.34375 -2.40625 3.34375 -2.6875 C 3.34375 -2.796875 3.296875 -2.90625 3.15625 -2.90625 C 3.078125 -2.90625 2.96875 -2.875 2.890625 -2.734375 C 2.78125 -2.53125 2.65625 -1.890625 2.65625 -1.53125 C 2.328125 -1.0625 1.9375 -0.609375 1.3125 -0.609375 C 0.640625 -0.609375 0.4375 -1.203125 0.4375 -1.75 C 0.4375 -3 1.453125 -4.046875 1.453125 -4.171875 C 1.453125 -4.28125 1.375 -4.359375 1.265625 -4.359375 C 1.140625 -4.359375 1.0625 -4.234375 1 -4.140625 C 0.5 -3.40625 0.125 -2.21875 0.125 -1.3125 C 0.125 -0.625 0.34375 0.109375 1.171875 0.109375 C 1.875 0.109375 2.34375 -0.390625 2.703125 -0.9375 C 2.796875 -0.359375 3.1875 0.109375 3.796875 0.109375 C 4.578125 0.109375 5.046875 -0.5 5.40625 -1.25 C 5.65625 -1.734375 6.03125 -3.09375 6.03125 -3.703125 Z M 6.03125 -3.703125 "
           id="path1117" />
      </symbol>
      <symbol
         overflow="visible"
         id="symbol3361">
        <path
           style="stroke:none;"
           d=""
           id="path6799" />
      </symbol>
      <symbol
         overflow="visible"
         id="symbol9531">
        <path
           style="stroke:none;"
           d="M 0.515625 0.84375 C 0.46875 1.046875 0.453125 1.09375 0.1875 1.09375 C 0.09375 1.09375 0 1.09375 0 1.25 C 0 1.328125 0.0625 1.359375 0.09375 1.359375 C 0.265625 1.359375 0.5 1.328125 0.6875 1.328125 C 0.921875 1.328125 1.1875 1.359375 1.421875 1.359375 C 1.484375 1.359375 1.5625 1.328125 1.5625 1.203125 C 1.5625 1.09375 1.46875 1.09375 1.375 1.09375 C 1.21875 1.09375 1.03125 1.09375 1.03125 1.015625 C 1.03125 0.984375 1.09375 0.796875 1.109375 0.703125 C 1.203125 0.328125 1.296875 -0.046875 1.375 -0.34375 C 1.453125 -0.203125 1.671875 0.0625 2.09375 0.0625 C 2.9375 0.0625 3.875 -0.875 3.875 -1.90625 C 3.875 -2.71875 3.3125 -3.078125 2.84375 -3.078125 C 2.40625 -3.078125 2.03125 -2.78125 1.84375 -2.578125 C 1.734375 -2.984375 1.34375 -3.078125 1.125 -3.078125 C 0.859375 -3.078125 0.6875 -2.890625 0.578125 -2.703125 C 0.4375 -2.46875 0.328125 -2.046875 0.328125 -2 C 0.328125 -1.921875 0.421875 -1.921875 0.453125 -1.921875 C 0.546875 -1.921875 0.546875 -1.9375 0.59375 -2.125 C 0.703125 -2.53125 0.84375 -2.875 1.109375 -2.875 C 1.296875 -2.875 1.34375 -2.71875 1.34375 -2.53125 C 1.34375 -2.453125 1.328125 -2.375 1.3125 -2.328125 Z M 1.84375 -2.234375 C 2.25 -2.78125 2.59375 -2.875 2.8125 -2.875 C 3.09375 -2.875 3.328125 -2.671875 3.328125 -2.203125 C 3.328125 -1.921875 3.171875 -1.203125 2.96875 -0.796875 C 2.78125 -0.453125 2.453125 -0.125 2.09375 -0.125 C 1.59375 -0.125 1.46875 -0.65625 1.46875 -0.734375 C 1.46875 -0.765625 1.484375 -0.8125 1.484375 -0.84375 Z M 1.84375 -2.234375 "
           id="path4165" />
      </symbol>
    </g>
    <g
       id="g1311">
      <symbol
         overflow="visible"
         id="symbol4852">
        <path
           style="stroke:none;"
           d=""
           id="path5281" />
      </symbol>
      <symbol
         overflow="visible"
         id="symbol7071">
        <path
           style="stroke:none;"
           d="M 6.03125 -3.703125 C 6.03125 -4.15625 5.859375 -4.40625 5.625 -4.40625 C 5.375 -4.40625 5.109375 -4.171875 5.109375 -3.9375 C 5.109375 -3.84375 5.15625 -3.734375 5.25 -3.640625 C 5.421875 -3.484375 5.609375 -3.21875 5.609375 -2.796875 C 5.609375 -2.40625 5.40625 -1.828125 5.109375 -1.375 C 4.8125 -0.953125 4.4375 -0.609375 3.96875 -0.609375 C 3.40625 -0.609375 3.09375 -0.96875 3 -1.5 C 3.109375 -1.765625 3.34375 -2.40625 3.34375 -2.6875 C 3.34375 -2.796875 3.296875 -2.90625 3.15625 -2.90625 C 3.078125 -2.90625 2.96875 -2.875 2.890625 -2.734375 C 2.78125 -2.53125 2.65625 -1.890625 2.65625 -1.53125 C 2.328125 -1.0625 1.9375 -0.609375 1.3125 -0.609375 C 0.640625 -0.609375 0.4375 -1.203125 0.4375 -1.75 C 0.4375 -3 1.453125 -4.046875 1.453125 -4.171875 C 1.453125 -4.28125 1.375 -4.359375 1.265625 -4.359375 C 1.140625 -4.359375 1.0625 -4.234375 1 -4.140625 C 0.5 -3.40625 0.125 -2.21875 0.125 -1.3125 C 0.125 -0.625 0.34375 0.109375 1.171875 0.109375 C 1.875 0.109375 2.34375 -0.390625 2.703125 -0.9375 C 2.796875 -0.359375 3.1875 0.109375 3.796875 0.109375 C 4.578125 0.109375 5.046875 -0.5 5.40625 -1.25 C 5.65625 -1.734375 6.03125 -3.09375 6.03125 -3.703125 Z M 6.03125 -3.703125 "
           id="path2146" />
      </symbol>
      <symbol
         overflow="visible"
         id="symbol6629">
        <path
           style="stroke:none;"
           d=""
           id="path2317" />
      </symbol>
      <symbol
         overflow="visible"
         id="symbol8911">
        <path
           style="stroke:none;"
           d="M 3 -2.625 C 2.828125 -2.578125 2.703125 -2.4375 2.703125 -2.296875 C 2.703125 -2.125 2.84375 -2.0625 2.9375 -2.0625 C 3.015625 -2.0625 3.28125 -2.109375 3.28125 -2.46875 C 3.28125 -2.921875 2.78125 -3.078125 2.34375 -3.078125 C 1.265625 -3.078125 1.0625 -2.265625 1.0625 -2.0625 C 1.0625 -1.796875 1.21875 -1.625 1.3125 -1.546875 C 1.484375 -1.40625 1.609375 -1.375 2.09375 -1.296875 C 2.25 -1.265625 2.6875 -1.1875 2.6875 -0.84375 C 2.6875 -0.71875 2.609375 -0.453125 2.328125 -0.28125 C 2.046875 -0.125 1.703125 -0.125 1.625 -0.125 C 1.34375 -0.125 0.953125 -0.1875 0.78125 -0.421875 C 1.015625 -0.453125 1.171875 -0.625 1.171875 -0.8125 C 1.171875 -0.984375 1.046875 -1.078125 0.90625 -1.078125 C 0.703125 -1.078125 0.5 -0.90625 0.5 -0.609375 C 0.5 -0.1875 0.9375 0.0625 1.609375 0.0625 C 2.90625 0.0625 3.140625 -0.8125 3.140625 -1.078125 C 3.140625 -1.71875 2.4375 -1.84375 2.171875 -1.890625 C 2.109375 -1.90625 1.9375 -1.9375 1.890625 -1.953125 C 1.640625 -2 1.515625 -2.140625 1.515625 -2.296875 C 1.515625 -2.453125 1.640625 -2.640625 1.796875 -2.75 C 1.984375 -2.859375 2.21875 -2.875 2.34375 -2.875 C 2.484375 -2.875 2.84375 -2.859375 3 -2.625 Z M 3 -2.625 "
           id="path3089" />
      </symbol>
    </g>
    <g
       id="g8946">
      <symbol
         overflow="visible"
         id="symbol4274">
        <path
           style="stroke:none;"
           d=""
           id="path6919" />
      </symbol>
      <symbol
         overflow="visible"
         id="symbol6097">
        <path
           style="stroke:none;"
           d="M 6.03125 -3.703125 C 6.03125 -4.15625 5.859375 -4.40625 5.625 -4.40625 C 5.375 -4.40625 5.109375 -4.171875 5.109375 -3.9375 C 5.109375 -3.84375 5.15625 -3.734375 5.25 -3.640625 C 5.421875 -3.484375 5.609375 -3.21875 5.609375 -2.796875 C 5.609375 -2.40625 5.40625 -1.828125 5.109375 -1.375 C 4.8125 -0.953125 4.4375 -0.609375 3.96875 -0.609375 C 3.40625 -0.609375 3.09375 -0.96875 3 -1.5 C 3.109375 -1.765625 3.34375 -2.40625 3.34375 -2.6875 C 3.34375 -2.796875 3.296875 -2.90625 3.15625 -2.90625 C 3.078125 -2.90625 2.96875 -2.875 2.890625 -2.734375 C 2.78125 -2.53125 2.65625 -1.890625 2.65625 -1.53125 C 2.328125 -1.0625 1.9375 -0.609375 1.3125 -0.609375 C 0.640625 -0.609375 0.4375 -1.203125 0.4375 -1.75 C 0.4375 -3 1.453125 -4.046875 1.453125 -4.171875 C 1.453125 -4.28125 1.375 -4.359375 1.265625 -4.359375 C 1.140625 -4.359375 1.0625 -4.234375 1 -4.140625 C 0.5 -3.40625 0.125 -2.21875 0.125 -1.3125 C 0.125 -0.625 0.34375 0.109375 1.171875 0.109375 C 1.875 0.109375 2.34375 -0.390625 2.703125 -0.9375 C 2.796875 -0.359375 3.1875 0.109375 3.796875 0.109375 C 4.578125 0.109375 5.046875 -0.5 5.40625 -1.25 C 5.65625 -1.734375 6.03125 -3.09375 6.03125 -3.703125 Z M 6.03125 -3.703125 "
           id="path7126" />
      </symbol>
      <symbol
         overflow="visible"
         id="symbol5099">
        <path
           style="stroke:none;"
           d=""
           id="path4633" />
      </symbol>
      <symbol
         overflow="visible"
         id="symbol1918">
        <path
           style="stroke:none;"
           d="M 2.265625 -4.359375 C 2.265625 -4.46875 2.171875 -4.625 1.984375 -4.625 C 1.796875 -4.625 1.59375 -4.4375 1.59375 -4.234375 C 1.59375 -4.125 1.671875 -3.96875 1.875 -3.96875 C 2.0625 -3.96875 2.265625 -4.171875 2.265625 -4.359375 Z M 0.84375 -0.8125 C 0.8125 -0.71875 0.78125 -0.640625 0.78125 -0.515625 C 0.78125 -0.1875 1.046875 0.0625 1.4375 0.0625 C 2.125 0.0625 2.4375 -0.890625 2.4375 -1 C 2.4375 -1.09375 2.34375 -1.09375 2.328125 -1.09375 C 2.234375 -1.09375 2.21875 -1.046875 2.1875 -0.96875 C 2.03125 -0.40625 1.734375 -0.125 1.453125 -0.125 C 1.3125 -0.125 1.28125 -0.21875 1.28125 -0.375 C 1.28125 -0.53125 1.328125 -0.65625 1.390625 -0.8125 C 1.46875 -1 1.546875 -1.1875 1.609375 -1.375 C 1.671875 -1.546875 1.9375 -2.171875 1.953125 -2.265625 C 1.984375 -2.328125 2 -2.40625 2 -2.484375 C 2 -2.8125 1.71875 -3.078125 1.34375 -3.078125 C 0.640625 -3.078125 0.328125 -2.125 0.328125 -2 C 0.328125 -1.921875 0.421875 -1.921875 0.453125 -1.921875 C 0.546875 -1.921875 0.546875 -1.953125 0.578125 -2.03125 C 0.75 -2.625 1.0625 -2.875 1.3125 -2.875 C 1.421875 -2.875 1.484375 -2.828125 1.484375 -2.640625 C 1.484375 -2.46875 1.453125 -2.375 1.28125 -1.9375 Z M 0.84375 -0.8125 "
           id="path9656" />
      </symbol>
    </g>
    <g
       id="g3031">
      <symbol
         overflow="visible"
         id="symbol5723">
        <path
           style="stroke:none;"
           d=""
           id="path4903" />
      </symbol>
      <symbol
         overflow="visible"
         id="symbol3640">
        <path
           style="stroke:none;"
           d="M 6.84375 -3.265625 C 7 -3.265625 7.1875 -3.265625 7.1875 -3.453125 C 7.1875 -3.65625 7 -3.65625 6.859375 -3.65625 L 0.890625 -3.65625 C 0.75 -3.65625 0.5625 -3.65625 0.5625 -3.453125 C 0.5625 -3.265625 0.75 -3.265625 0.890625 -3.265625 Z M 6.859375 -1.328125 C 7 -1.328125 7.1875 -1.328125 7.1875 -1.53125 C 7.1875 -1.71875 7 -1.71875 6.84375 -1.71875 L 0.890625 -1.71875 C 0.75 -1.71875 0.5625 -1.71875 0.5625 -1.53125 C 0.5625 -1.328125 0.75 -1.328125 0.890625 -1.328125 Z M 6.859375 -1.328125 "
           id="path1532" />
      </symbol>
    </g>
    <g
       id="g3546">
      <symbol
         overflow="visible"
         id="symbol181">
        <path
           style="stroke:none;"
           d=""
           id="path6613" />
      </symbol>
      <symbol
         overflow="visible"
         id="symbol9072">
        <path
           style="stroke:none;"
           d="M 4.078125 -2.296875 L 6.859375 -2.296875 C 7 -2.296875 7.1875 -2.296875 7.1875 -2.5 C 7.1875 -2.6875 7 -2.6875 6.859375 -2.6875 L 4.078125 -2.6875 L 4.078125 -5.484375 C 4.078125 -5.625 4.078125 -5.8125 3.875 -5.8125 C 3.671875 -5.8125 3.671875 -5.625 3.671875 -5.484375 L 3.671875 -2.6875 L 0.890625 -2.6875 C 0.75 -2.6875 0.5625 -2.6875 0.5625 -2.5 C 0.5625 -2.296875 0.75 -2.296875 0.890625 -2.296875 L 3.671875 -2.296875 L 3.671875 0.5 C 3.671875 0.640625 3.671875 0.828125 3.875 0.828125 C 4.078125 0.828125 4.078125 0.640625 4.078125 0.5 Z M 4.078125 -2.296875 "
           id="path7918" />
      </symbol>
    </g>
    <g
       id="g2856">
      <symbol
         overflow="visible"
         id="symbol9593">
        <path
           style="stroke:none;"
           d=""
           id="path7688" />
      </symbol>
      <symbol
         overflow="visible"
         id="symbol366">
        <path
           style="stroke:none;"
           d="M 4.40625 -6.953125 C 4.34375 -7.09375 4.3125 -7.140625 4.140625 -7.140625 C 3.984375 -7.140625 3.953125 -7.09375 3.890625 -6.953125 L 0.515625 -0.203125 C 0.46875 -0.109375 0.46875 -0.09375 0.46875 -0.078125 C 0.46875 0 0.53125 0 0.6875 0 L 7.609375 0 C 7.765625 0 7.828125 0 7.828125 -0.078125 C 7.828125 -0.09375 7.828125 -0.109375 7.78125 -0.203125 Z M 3.828125 -6.140625 L 6.515625 -0.75 L 1.140625 -0.75 Z M 3.828125 -6.140625 "
           id="path1899" />
      </symbol>
    </g>
    <g
       id="g1446">
      <symbol
         overflow="visible"
         id="symbol9006">
        <path
           style="stroke:none;"
           d=""
           id="path5224" />
      </symbol>
      <symbol
         overflow="visible"
         id="symbol7120">
        <path
           style="stroke:none;"
           d="M 4.40625 -6.953125 C 4.34375 -7.09375 4.3125 -7.140625 4.140625 -7.140625 C 3.984375 -7.140625 3.953125 -7.09375 3.890625 -6.953125 L 0.515625 -0.203125 C 0.46875 -0.109375 0.46875 -0.09375 0.46875 -0.078125 C 0.46875 0 0.53125 0 0.6875 0 L 7.609375 0 C 7.765625 0 7.828125 0 7.828125 -0.078125 C 7.828125 -0.09375 7.828125 -0.109375 7.78125 -0.203125 Z M 3.828125 -6.140625 L 6.515625 -0.75 L 1.140625 -0.75 Z M 3.828125 -6.140625 "
           id="path9917" />
      </symbol>
    </g>
    <g
       id="g4356">
      <symbol
         overflow="visible"
         id="symbol7151">
        <path
           style="stroke:none;"
           d=""
           id="path502" />
      </symbol>
      <symbol
         overflow="visible"
         id="symbol4465">
        <path
           style="stroke:none;"
           d="M 4.40625 -6.953125 C 4.34375 -7.09375 4.3125 -7.140625 4.140625 -7.140625 C 3.984375 -7.140625 3.953125 -7.09375 3.890625 -6.953125 L 0.515625 -0.203125 C 0.46875 -0.109375 0.46875 -0.09375 0.46875 -0.078125 C 0.46875 0 0.53125 0 0.6875 0 L 7.609375 0 C 7.765625 0 7.828125 0 7.828125 -0.078125 C 7.828125 -0.09375 7.828125 -0.109375 7.78125 -0.203125 Z M 3.828125 -6.140625 L 6.515625 -0.75 L 1.140625 -0.75 Z M 3.828125 -6.140625 "
           id="path5316" />
      </symbol>
    </g>
    <marker
       style="overflow:visible"
       id="Arrow1Lstart-0-0"
       refX="0"
       refY="0"
       orient="auto"
       inkscape:stockid="Arrow1Lstart"
       inkscape:isstock="true">
      <path
         transform="matrix(0.8,0,0,0.8,10,0)"
         style="fill:context-stroke;fill-rule:evenodd;stroke:context-stroke;stroke-width:1pt"
         d="M 0,0 5,-5 -12.5,0 5,5 Z"
         id="path8386-9-1" />
    </marker>
    <marker
       style="overflow:visible"
       id="Arrow1Lstart-0-8"
       refX="0"
       refY="0"
       orient="auto"
       inkscape:stockid="Arrow1Lstart"
       inkscape:isstock="true">
      <path
         transform="matrix(0.8,0,0,0.8,10,0)"
         style="fill:context-stroke;fill-rule:evenodd;stroke:context-stroke;stroke-width:1pt"
         d="M 0,0 5,-5 -12.5,0 5,5 Z"
         id="path8386-9-2" />
    </marker>
    <marker
       style="overflow:visible"
       id="Arrow1Lstart-0-8-3"
       refX="0"
       refY="0"
       orient="auto"
       inkscape:stockid="Arrow1Lstart"
       inkscape:isstock="true">
      <path
         transform="matrix(0.8,0,0,0.8,10,0)"
         style="fill:context-stroke;fill-rule:evenodd;stroke:context-stroke;stroke-width:1pt"
         d="M 0,0 5,-5 -12.5,0 5,5 Z"
         id="path8386-9-2-4" />
    </marker>
  </defs>
  <g
     inkscape:label="Layer 1"
     inkscape:groupmode="layer"
     id="layer1">
    <path
       style="fill:none;stroke:#7a0000;stroke-width:2.69818;stroke-linecap:butt;stroke-linejoin:miter;stroke-miterlimit:4;stroke-dasharray:none;stroke-opacity:1;marker-start:url(#Arrow1Lstart-0-8)"
       d="m 171.37069,28.951639 -0.78108,44.722552 c 0,0 32.55314,8.29765 32.41797,20.94159 -0.21542,20.149729 -55.80083,13.897499 -55.70223,33.972249 0.0988,20.12249 56.13984,10.63728 55.91468,31.58306 -0.23305,21.68041 -54.75503,8.31092 -55.31471,30.4614 -0.53858,21.31559 55.19075,11.68786 54.32717,32.98862"
       id="path2715-3-5"
       sodipodi:nodetypes="ccssssc"
       inkscape:export-filename="/home/bogfootlj/Notes/PhDNotes/PhDTopicDefenseAbstract/Seminar/Presentation/Images/SPDC.png"
       inkscape:export-xdpi="96.03212"
       inkscape:export-ydpi="96.03212" />
    <path
       style="fill:none;stroke:#7a0000;stroke-width:2.69818;stroke-linecap:butt;stroke-linejoin:miter;stroke-miterlimit:4;stroke-dasharray:none;stroke-opacity:1;marker-start:url(#Arrow1Lstart-0-8-3)"
       d="m 114.19897,32.320136 -0.78108,44.722552 c 0,0 32.55314,8.29765 32.41797,20.94159 -0.21542,20.149732 -55.800825,13.897502 -55.702225,33.972252 0.0988,20.12249 56.139835,10.63728 55.914675,31.58306 -0.23305,21.68041 -54.755025,8.31092 -55.314705,30.4614 -0.53858,21.31559 55.190745,11.68786 54.327165,32.98862"
       id="path2715-3-5-9"
       sodipodi:nodetypes="ccssssc"
       inkscape:export-filename="/home/bogfootlj/Notes/PhDNotes/PhDTopicDefenseAbstract/Seminar/Presentation/Images/SPDC.png"
       inkscape:export-xdpi="96.03212"
       inkscape:export-ydpi="96.03212" />
    <path
       style="fill:none;stroke:#bc0000;stroke-width:2.1891;stroke-linecap:butt;stroke-linejoin:miter;stroke-miterlimit:4;stroke-dasharray:none;stroke-opacity:1;marker-start:url(#Arrow1Lstart-6)"
       d="m 26.332052,35.689994 c 0.0462,13.476085 -0.434214,31.224741 -0.04604,52.951842 0,0 21.343825,7.12493 21.23635,17.591924 -0.171287,16.68049 -39.5191484,0.2168 -39.4407462,16.83532 0.078561,16.65793 39.3470772,0.45784 39.1680442,17.79732 -0.185301,17.94763 -39.3235074,-0.48565 -39.8055431,16.68245 -0.4953731,17.64301 40.5349911,2.9128 39.8483171,20.54615 -0.668224,17.15987 -39.9969281,-1.79614 -40.1559167,15.38215 -0.1599419,17.2813 40.5008107,-0.68311 40.0999417,16.5923 -0.389402,16.7817 -39.6384411,13.38166 -39.6384411,13.38166"
       id="path2715-9"
       sodipodi:nodetypes="ccsssssssc"
       inkscape:export-filename="/home/bogfootlj/Notes/PhDNotes/PhDTopicDefenseAbstract/Seminar/Presentation/Images/SPDC.png"
       inkscape:export-xdpi="96.03212"
       inkscape:export-ydpi="96.03212" />
    <path
       style="fill:none;stroke:#000000;stroke-width:0.9;stroke-linecap:butt;stroke-linejoin:miter;stroke-miterlimit:4;stroke-dasharray:none;stroke-opacity:1;marker-end:url(#Arrow1Lend)"
       d="m 53.083903,140.63339 28.387282,0.21022"
       id="path15026"
       sodipodi:nodetypes="cc"
       inkscape:export-filename="/home/bogfootlj/Notes/PhDNotes/PhDTopicDefenseAbstract/Seminar/Presentation/Images/SPDC.png"
       inkscape:export-xdpi="96.03212"
       inkscape:export-ydpi="96.03212" />
    <g
       inkscape:label=""
       transform="matrix(2.0323651,0,0,2.0126289,-165.46979,-143.76264)"
       id="g65700"
       inkscape:export-filename="/home/bogfootlj/Notes/PhDNotes/PhDTopicDefenseAbstract/Seminar/Presentation/Images/SPDC.png"
       inkscape:export-xdpi="96.03212"
       inkscape:export-ydpi="96.03212">
      <g
         id="g9005">
        <g
           style="fill:#000000;fill-opacity:1"
           id="g2765">
          <use
             xlink:href="#symbol5640"
             x="91.925003"
             y="81.962997"
             id="use7399"
             width="100%"
             height="100%" />
        </g>
        <g
           style="fill:#000000;fill-opacity:1"
           id="g7858">
          <use
             xlink:href="#symbol9531"
             x="98.126999"
             y="83.457001"
             id="use1990"
             width="100%"
             height="100%" />
        </g>
      </g>
    </g>
    <g
       inkscape:label=""
       transform="matrix(1.8658742,0,0,1.741582,-67.267632,-125.90932)"
       id="g65823"
       style="stroke-width:1.5;stroke-miterlimit:4;stroke-dasharray:none"
       inkscape:export-filename="/home/bogfootlj/Notes/PhDNotes/PhDTopicDefenseAbstract/Seminar/Presentation/Images/SPDC.png"
       inkscape:export-xdpi="96.03212"
       inkscape:export-ydpi="96.03212">
      <g
         id="g1419"
         style="stroke-width:1.5;stroke-miterlimit:4;stroke-dasharray:none">
        <g
           style="fill:#000000;fill-opacity:1;stroke-width:1.5;stroke-miterlimit:4;stroke-dasharray:none"
           id="g4809">
          <use
             xlink:href="#symbol7071"
             x="91.925003"
             y="81.962997"
             id="use6056"
             width="100%"
             height="100%"
             style="stroke-width:1.5;stroke-miterlimit:4;stroke-dasharray:none" />
        </g>
        <g
           style="fill:#000000;fill-opacity:1;stroke-width:1.5;stroke-miterlimit:4;stroke-dasharray:none"
           id="g9948">
          <use
             xlink:href="#symbol8911"
             x="98.126999"
             y="83.457001"
             id="use2387"
             width="100%"
             height="100%"
             style="stroke-width:1.5;stroke-miterlimit:4;stroke-dasharray:none" />
        </g>
      </g>
    </g>
    <g
       inkscape:label=""
       transform="matrix(1.9764338,0,0,1.8787431,-15.738563,-135.35491)"
       id="g65976"
       style="stroke-width:1.00001584;stroke-miterlimit:4;stroke-dasharray:none"
       inkscape:export-filename="/home/bogfootlj/Notes/PhDNotes/PhDTopicDefenseAbstract/Seminar/Presentation/Images/SPDC.png"
       inkscape:export-xdpi="96.03212"
       inkscape:export-ydpi="96.03212">
      <g
         id="g3701"
         style="stroke-width:1.00001584;stroke-miterlimit:4;stroke-dasharray:none">
        <g
           style="fill:#000000;fill-opacity:1;stroke-width:1.00001584;stroke-miterlimit:4;stroke-dasharray:none"
           id="g6892">
          <use
             xlink:href="#symbol6097"
             x="91.925003"
             y="81.962997"
             id="use1877"
             width="100%"
             height="100%"
             style="stroke-width:1.00001584;stroke-miterlimit:4;stroke-dasharray:none" />
        </g>
        <g
           style="fill:#000000;fill-opacity:1;stroke-width:1.00001584;stroke-miterlimit:4;stroke-dasharray:none"
           id="g6451">
          <use
             xlink:href="#symbol1918"
             x="98.126999"
             y="83.457001"
             id="use2858"
             width="100%"
             height="100%"
             style="stroke-width:1.00001584;stroke-miterlimit:4;stroke-dasharray:none" />
        </g>
      </g>
    </g>
    <g
       inkscape:label=""
       transform="translate(-28.533892,-63.238004)"
       id="g66153"
       inkscape:export-filename="/home/bogfootlj/Notes/PhDNotes/PhDTopicDefenseAbstract/Seminar/Presentation/Images/SPDC.png"
       inkscape:export-xdpi="96.03212"
       inkscape:export-ydpi="96.03212">
      <g
         id="g4910">
        <g
           style="fill:#000000;fill-opacity:1"
           id="g8928">
          <use
             xlink:href="#symbol3640"
             x="91.925003"
             y="81.962997"
             id="use6246"
             width="100%"
             height="100%" />
        </g>
      </g>
    </g>
    <g
       inkscape:label=""
       transform="matrix(1.5895756,0,0,1.8733787,-7.1930399,-134.32029)"
       id="g66342"
       inkscape:export-filename="/home/bogfootlj/Notes/PhDNotes/PhDTopicDefenseAbstract/Seminar/Presentation/Images/SPDC.png"
       inkscape:export-xdpi="96.03212"
       inkscape:export-ydpi="96.03212">
      <g
         id="g8066">
        <g
           style="fill:#000000;fill-opacity:1"
           id="g1208">
          <use
             xlink:href="#symbol9072"
             x="91.925003"
             y="81.962997"
             id="use6730"
             width="100%"
             height="100%" />
        </g>
      </g>
    </g>
  </g>
</svg>
