<?xml version="1.0" encoding="UTF-8" standalone="no"?><!DOCTYPE svg PUBLIC "-//W3C//DTD SVG 1.1//EN" "http://www.w3.org/Graphics/SVG/1.1/DTD/svg11.dtd"><svg width="100%" height="100%" viewBox="0 0 846 319" version="1.1" xmlns="http://www.w3.org/2000/svg" xmlns:xlink="http://www.w3.org/1999/xlink" xml:space="preserve" xmlns:serif="http://www.serif.com/" style="fill-rule:evenodd;clip-rule:evenodd;stroke-linejoin:round;stroke-miterlimit:2;"><g id="logo"><path d="M344.821,256.283l6.512,0l0,22.371l-6.512,0l0,-22.371Zm0.532,-9.702c0.767,-0.767 1.683,-1.151 2.746,-1.151c1.033,0 1.927,0.384 2.68,1.151c0.753,0.769 1.13,1.669 1.13,2.702c0,1.035 -0.385,1.935 -1.152,2.702c-0.768,0.769 -1.654,1.153 -2.658,1.153c-1.063,0 -1.979,-0.384 -2.746,-1.153c-0.769,-0.767 -1.152,-1.667 -1.152,-2.702c0,-1.033 0.383,-1.933 1.152,-2.702" style="fill:#58595b;fill-rule:nonzero;"/><path d="M356.826,256.283l6.069,0l0,3.189c0.709,-1.24 1.639,-2.193 2.791,-2.857c1.152,-0.665 2.466,-0.997 3.943,-0.997c2.746,0 4.813,0.791 6.202,2.37c1.388,1.58 2.082,3.906 2.082,6.978l0,13.688l-6.512,0l0,-12.847c0,-3.042 -1.27,-4.563 -3.81,-4.563c-1.3,0 -2.333,0.406 -3.101,1.219c-0.768,0.812 -1.152,1.897 -1.152,3.256l0,12.935l-6.512,0l0,-22.371Z" style="fill:#58595b;fill-rule:nonzero;"/><path d="M395.633,248.42c1.506,-1.491 3.677,-2.237 6.512,-2.237c1.565,0 2.776,0.192 3.633,0.575l0,5.449c-0.916,-0.354 -1.788,-0.531 -2.614,-0.531c-1.034,0 -1.839,0.273 -2.415,0.819c-0.575,0.547 -0.864,1.322 -0.864,2.326l0,1.462l5.76,0l0,5.05l-5.76,0l0,17.321l-6.512,0l0,-17.321l-3.145,0l0,-5.05l3.145,0l0,-1.374c0,-2.835 0.754,-4.998 2.26,-6.489" style="fill:#58595b;fill-rule:nonzero;"/><path d="M408.833,256.283l6.512,0l0,22.371l-6.512,0l0,-22.371Zm0.532,-9.702c0.767,-0.767 1.683,-1.151 2.746,-1.151c1.034,0 1.927,0.384 2.68,1.151c0.753,0.769 1.13,1.669 1.13,2.702c0,1.035 -0.384,1.935 -1.152,2.702c-0.768,0.769 -1.654,1.153 -2.658,1.153c-1.063,0 -1.979,-0.384 -2.746,-1.153c-0.769,-0.767 -1.152,-1.667 -1.152,-2.702c0,-1.033 0.383,-1.933 1.152,-2.702" style="fill:#58595b;fill-rule:nonzero;"/><path d="M419.288,275.376l9.392,-13.866l-9.082,0l0,-5.227l17.499,0l0,3.278l-9.348,13.866l9.923,0l0,5.227l-18.384,0l0,-3.278Z" style="fill:#58595b;fill-rule:nonzero;"/><path d="M441.615,256.283l6.512,0l0,22.371l-6.512,0l0,-22.371Zm0.531,-9.702c0.768,-0.767 1.684,-1.151 2.747,-1.151c1.033,0 1.927,0.384 2.68,1.151c0.753,0.769 1.13,1.669 1.13,2.702c0,1.035 -0.385,1.935 -1.152,2.702c-0.768,0.769 -1.655,1.153 -2.658,1.153c-1.063,0 -1.979,-0.384 -2.747,-1.153c-0.768,-0.767 -1.151,-1.667 -1.151,-2.702c0,-1.033 0.383,-1.933 1.151,-2.702" style="fill:#58595b;fill-rule:nonzero;"/><path d="M460.133,268.023l-0,10.632l-6.512,-0l-0,-31.897l6.512,-0l-0,17.588l7.487,-8.062l8.24,-0l-9.215,9.879l9.48,12.492l-8.018,-0l-7.974,-10.632Z" style="fill:#58595b;fill-rule:nonzero;"/><path d="M485.406,272.187c0.989,1.123 2.355,1.684 4.098,1.684c1.712,-0 3.056,-0.561 4.031,-1.684c0.975,-1.122 1.462,-2.643 1.462,-4.562c0,-2.039 -0.495,-3.64 -1.484,-4.807c-0.99,-1.167 -2.356,-1.75 -4.098,-1.75c-1.713,-0 -3.056,0.576 -4.031,1.727c-0.975,1.152 -1.462,2.733 -1.462,4.741c0,1.978 0.494,3.529 1.484,4.651m-2.525,5.648c-1.846,-0.989 -3.256,-2.377 -4.231,-4.164c-0.974,-1.787 -1.462,-3.832 -1.462,-6.135c0,-2.333 0.488,-4.401 1.462,-6.203c0.975,-1.8 2.377,-3.204 4.209,-4.209c1.831,-1.002 4.016,-1.505 6.556,-1.505c2.57,-0 4.777,0.509 6.623,1.528c1.846,1.019 3.256,2.43 4.231,4.23c0.974,1.802 1.462,3.884 1.462,6.248c0,2.302 -0.488,4.333 -1.462,6.09c-0.975,1.758 -2.378,3.131 -4.209,4.12c-1.831,0.99 -4.017,1.484 -6.556,1.484c-2.57,-0 -4.778,-0.494 -6.623,-1.484" style="fill:#58595b;fill-rule:nonzero;"/><path d="M344.824,188.762l19.625,-0l-0,6.024l-12.67,-0l-0,7.488l12.271,-0l-0,5.846l-12.271,-0l-0,11.652l-6.955,-0l-0,-31.01Z" style="fill:#58595b;fill-rule:nonzero;"/><path d="M374.35,214.899c0.516,0.503 1.203,0.753 2.06,0.753c1.211,-0 2.222,-0.421 3.034,-1.263c0.812,-0.842 1.218,-2.178 1.218,-4.009l-0,-1.018c-0.797,0.442 -1.964,0.738 -3.499,0.886c-2.392,0.207 -3.588,1.136 -3.588,2.791c-0,0.738 0.258,1.358 0.775,1.86m-4.696,3.633c-1.373,-1.27 -2.06,-2.953 -2.06,-5.051c-0,-4.046 2.747,-6.394 8.24,-7.043c1.329,-0.147 2.333,-0.303 3.013,-0.466c0.678,-0.161 1.144,-0.346 1.395,-0.553c0.251,-0.207 0.377,-0.502 0.377,-0.886c-0,-0.709 -0.363,-1.292 -1.086,-1.75c-0.724,-0.457 -1.794,-0.687 -3.212,-0.687c-2.451,-0 -4.947,0.871 -7.487,2.615l-0,-5.539c1.093,-0.709 2.341,-1.292 3.744,-1.75c1.402,-0.457 2.916,-0.686 4.541,-0.686c3.248,-0 5.685,0.812 7.309,2.436c1.624,1.625 2.437,3.899 2.437,6.823l-0,13.777l-5.316,-0l-0.178,-2.835c-0.649,1.122 -1.513,1.986 -2.591,2.592c-1.078,0.604 -2.341,0.907 -3.788,0.907c-2.185,-0 -3.965,-0.635 -5.338,-1.904" style="fill:#58595b;fill-rule:nonzero;"/><path d="M398.427,209.14l0,10.632l-6.512,-0l0,-31.897l6.512,-0l0,17.588l7.487,-8.062l8.24,-0l-9.215,9.879l9.48,12.492l-8.018,-0l-7.974,-10.632Z" style="fill:#58595b;fill-rule:nonzero;"/><path d="M419.004,218.067c-1.374,-1.581 -2.06,-3.907 -2.06,-6.979l0,-13.688l6.512,0l0,12.847c0,3.042 1.196,4.562 3.588,4.562c1.299,0 2.304,-0.398 3.013,-1.195c0.708,-0.798 1.063,-1.891 1.063,-3.278l0,-12.936l6.512,0l0,22.371l-6.069,0l0,-3.057c-0.709,1.182 -1.617,2.098 -2.725,2.747c-1.107,0.649 -2.385,0.974 -3.832,0.974c-2.628,0 -4.629,-0.789 -6.002,-2.369" style="fill:#58595b;fill-rule:nonzero;"/><rect x="443.125" y="187.875" width="6.512" height="31.896" style="fill:#58595b;"/><path d="M455.706,212.506l-0,-10.056l-2.702,0l-0,-5.049l2.702,0l-0,-4.741l6.512,-1.507l-0,6.248l5.803,0l-0,5.049l-5.803,0l-0,9.126c-0,2.215 0.886,3.323 2.658,3.323c0.591,0 1.115,-0.051 1.573,-0.156c0.458,-0.102 0.982,-0.272 1.572,-0.508l-0,5.537c-0.857,0.236 -1.616,0.405 -2.281,0.509c-0.664,0.103 -1.41,0.155 -2.237,0.155c-5.198,0 -7.797,-2.643 -7.797,-7.93" style="fill:#58595b;fill-rule:nonzero;"/><path d="M485.742,205.994c-0.207,-1.358 -0.62,-2.37 -1.241,-3.034c-0.62,-0.665 -1.55,-0.997 -2.79,-0.997c-2.275,0 -3.693,1.343 -4.253,4.031l8.284,0Zm-11.917,11.252c-2.156,-2.126 -3.234,-4.99 -3.234,-8.594c-0,-2.333 0.465,-4.4 1.396,-6.202c0.93,-1.801 2.237,-3.204 3.92,-4.209c1.684,-1.003 3.618,-1.506 5.804,-1.506c3.573,0 6.216,1.049 7.929,3.146c1.713,2.097 2.57,4.962 2.57,8.593l0,1.95l-14.885,0c0.236,1.594 0.849,2.755 1.838,3.477c0.99,0.725 2.414,1.086 4.275,1.086c2.717,0 5.213,-0.458 7.487,-1.373l-0,5.537c-1.241,0.444 -2.444,0.768 -3.61,0.975c-1.168,0.206 -2.533,0.309 -4.098,0.309c-4.105,0 -7.236,-1.062 -9.392,-3.189" style="fill:#58595b;fill-rule:nonzero;"/><path d="M497.436,212.506l0,-10.056l-2.702,0l0,-5.049l2.702,0l0,-4.741l6.512,-1.507l0,6.248l5.803,0l0,5.049l-5.803,0l0,9.126c0,2.215 0.886,3.323 2.658,3.323c0.591,0 1.115,-0.051 1.573,-0.156c0.458,-0.102 0.982,-0.272 1.572,-0.508l0,5.537c-0.857,0.236 -1.616,0.405 -2.281,0.509c-0.664,0.103 -1.41,0.155 -2.237,0.155c-5.198,0 -7.797,-2.643 -7.797,-7.93" style="fill:#58595b;fill-rule:nonzero;"/><path d="M519.83,214.899c0.516,0.503 1.203,0.753 2.06,0.753c1.211,-0 2.222,-0.421 3.034,-1.263c0.812,-0.842 1.218,-2.178 1.218,-4.009l0,-1.018c-0.797,0.442 -1.964,0.738 -3.499,0.886c-2.392,0.207 -3.588,1.136 -3.588,2.791c0,0.738 0.258,1.358 0.775,1.86m-4.696,3.633c-1.373,-1.27 -2.06,-2.953 -2.06,-5.051c0,-4.046 2.747,-6.394 8.24,-7.043c1.329,-0.147 2.333,-0.303 3.013,-0.466c0.678,-0.161 1.144,-0.346 1.395,-0.553c0.251,-0.207 0.377,-0.502 0.377,-0.886c0,-0.709 -0.363,-1.292 -1.086,-1.75c-0.724,-0.457 -1.794,-0.687 -3.212,-0.687c-2.451,-0 -4.947,0.871 -7.487,2.615l0,-5.539c1.093,-0.709 2.341,-1.292 3.744,-1.75c1.402,-0.457 2.916,-0.686 4.541,-0.686c3.248,-0 5.685,0.812 7.309,2.436c1.624,1.625 2.437,3.899 2.437,6.823l0,13.777l-5.316,-0l-0.178,-2.835c-0.649,1.122 -1.513,1.986 -2.591,2.592c-1.078,0.604 -2.341,0.907 -3.788,0.907c-2.185,-0 -3.965,-0.635 -5.338,-1.904" style="fill:#58595b;fill-rule:nonzero;"/><path d="M545.192,216.493l9.392,-13.866l-9.082,0l0,-5.227l17.499,0l0,3.278l-9.348,13.866l9.923,0l0,5.227l-18.384,0l0,-3.278Z" style="fill:#58595b;fill-rule:nonzero;"/><path d="M573.123,214.899c0.516,0.503 1.203,0.753 2.06,0.753c1.211,-0 2.222,-0.421 3.034,-1.263c0.812,-0.842 1.218,-2.178 1.218,-4.009l-0,-1.018c-0.797,0.442 -1.964,0.738 -3.499,0.886c-2.392,0.207 -3.588,1.136 -3.588,2.791c-0,0.738 0.258,1.358 0.775,1.86m-4.696,3.633c-1.373,-1.27 -2.06,-2.953 -2.06,-5.051c-0,-4.046 2.747,-6.394 8.24,-7.043c1.329,-0.147 2.333,-0.303 3.013,-0.466c0.678,-0.161 1.144,-0.346 1.395,-0.553c0.251,-0.207 0.377,-0.502 0.377,-0.886c-0,-0.709 -0.363,-1.292 -1.086,-1.75c-0.724,-0.457 -1.794,-0.687 -3.212,-0.687c-2.451,-0 -4.947,0.871 -7.487,2.615l-0,-5.539c1.093,-0.709 2.341,-1.292 3.744,-1.75c1.402,-0.457 2.916,-0.686 4.541,-0.686c3.248,-0 5.685,0.812 7.309,2.436c1.624,1.625 2.437,3.899 2.437,6.823l-0,13.777l-5.316,-0l-0.178,-2.835c-0.649,1.122 -1.513,1.986 -2.591,2.592c-1.078,0.604 -2.341,0.907 -3.788,0.907c-2.185,-0 -3.965,-0.635 -5.338,-1.904" style="fill:#58595b;fill-rule:nonzero;"/><path d="M600.035,197.401l6.068,-0l0,3.189c0.68,-1.24 1.574,-2.193 2.682,-2.857c1.106,-0.665 2.339,-0.997 3.697,-0.997c3.811,-0 6.306,1.506 7.487,4.519c0.68,-1.417 1.603,-2.526 2.769,-3.323c1.167,-0.798 2.488,-1.196 3.965,-1.196c2.746,-0 4.813,0.791 6.202,2.37c1.388,1.58 2.082,3.906 2.082,6.978l0,13.688l-6.512,-0l-0,-12.847c-0,-3.042 -1.27,-4.563 -3.809,-4.563c-1.123,-0 -2.053,0.406 -2.791,1.219c-0.738,0.812 -1.108,1.897 -1.108,3.256l-0,12.935l-6.512,-0l-0,-12.847c-0,-3.042 -1.27,-4.563 -3.809,-4.563c-1.123,-0 -2.054,0.406 -2.791,1.219c-0.739,0.812 -1.108,1.897 -1.108,3.256l-0,12.935l-6.512,-0l-0,-22.371Z" style="fill:#58595b;fill-rule:nonzero;"/><path d="M645.641,214.899c0.516,0.503 1.203,0.753 2.06,0.753c1.211,-0 2.222,-0.421 3.034,-1.263c0.812,-0.842 1.218,-2.178 1.218,-4.009l0,-1.018c-0.797,0.442 -1.964,0.738 -3.499,0.886c-2.392,0.207 -3.588,1.136 -3.588,2.791c0,0.738 0.258,1.358 0.775,1.86m-4.696,3.633c-1.373,-1.27 -2.06,-2.953 -2.06,-5.051c0,-4.046 2.747,-6.394 8.24,-7.043c1.329,-0.147 2.333,-0.303 3.013,-0.466c0.678,-0.161 1.144,-0.346 1.395,-0.553c0.251,-0.207 0.377,-0.502 0.377,-0.886c0,-0.709 -0.363,-1.292 -1.086,-1.75c-0.724,-0.457 -1.794,-0.687 -3.212,-0.687c-2.451,-0 -4.947,0.871 -7.487,2.615l0,-5.539c1.093,-0.709 2.341,-1.292 3.744,-1.75c1.402,-0.457 2.916,-0.686 4.541,-0.686c3.248,-0 5.685,0.812 7.309,2.436c1.624,1.625 2.437,3.899 2.437,6.823l0,13.777l-5.316,-0l-0.178,-2.835c-0.649,1.122 -1.513,1.986 -2.591,2.592c-1.078,0.604 -2.341,0.907 -3.788,0.907c-2.185,-0 -3.965,-0.635 -5.338,-1.904" style="fill:#58595b;fill-rule:nonzero;"/><path d="M663.782,212.506l0,-10.056l-2.702,0l0,-5.049l2.702,0l0,-4.741l6.512,-1.507l-0,6.248l5.803,0l0,5.049l-5.803,0l-0,9.126c-0,2.215 0.886,3.323 2.658,3.323c0.591,0 1.115,-0.051 1.573,-0.156c0.458,-0.102 0.982,-0.272 1.572,-0.508l0,5.537c-0.857,0.236 -1.616,0.405 -2.281,0.509c-0.664,0.103 -1.41,0.155 -2.237,0.155c-5.198,0 -7.797,-2.643 -7.797,-7.93" style="fill:#58595b;fill-rule:nonzero;"/><path d="M693.818,205.994c-0.207,-1.358 -0.62,-2.37 -1.241,-3.034c-0.62,-0.665 -1.55,-0.997 -2.79,-0.997c-2.275,0 -3.693,1.343 -4.253,4.031l8.284,0Zm-11.917,11.252c-2.156,-2.126 -3.234,-4.99 -3.234,-8.594c0,-2.333 0.465,-4.4 1.396,-6.202c0.93,-1.801 2.237,-3.204 3.92,-4.209c1.684,-1.003 3.618,-1.506 5.804,-1.506c3.573,0 6.216,1.049 7.929,3.146c1.713,2.097 2.57,4.962 2.57,8.593l0,1.95l-14.885,0c0.236,1.594 0.849,2.755 1.838,3.477c0.99,0.725 2.414,1.086 4.275,1.086c2.717,0 5.213,-0.458 7.487,-1.373l0,5.537c-1.241,0.444 -2.444,0.768 -3.61,0.975c-1.168,0.206 -2.533,0.309 -4.098,0.309c-4.105,0 -7.236,-1.062 -9.392,-3.189" style="fill:#58595b;fill-rule:nonzero;"/><path d="M704.937,197.401l6.069,-0l-0,3.189c0.679,-1.24 1.573,-2.193 2.681,-2.857c1.107,-0.665 2.339,-0.997 3.698,-0.997c3.81,-0 6.305,1.506 7.487,4.519c0.679,-1.417 1.602,-2.526 2.769,-3.323c1.166,-0.798 2.487,-1.196 3.964,-1.196c2.747,-0 4.814,0.791 6.203,2.37c1.387,1.58 2.082,3.906 2.082,6.978l-0,13.688l-6.513,-0l-0,-12.847c-0,-3.042 -1.27,-4.563 -3.809,-4.563c-1.123,-0 -2.053,0.406 -2.791,1.219c-0.738,0.812 -1.108,1.897 -1.108,3.256l-0,12.935l-6.512,-0l-0,-12.847c-0,-3.042 -1.27,-4.563 -3.809,-4.563c-1.123,-0 -2.054,0.406 -2.791,1.219c-0.739,0.812 -1.108,1.897 -1.108,3.256l-0,12.935l-6.512,-0l-0,-22.371Z" style="fill:#58595b;fill-rule:nonzero;"/><path d="M750.544,214.899c0.516,0.503 1.203,0.753 2.06,0.753c1.211,-0 2.222,-0.421 3.034,-1.263c0.812,-0.842 1.218,-2.178 1.218,-4.009l-0,-1.018c-0.797,0.442 -1.964,0.738 -3.499,0.886c-2.392,0.207 -3.588,1.136 -3.588,2.791c-0,0.738 0.258,1.358 0.775,1.86m-4.696,3.633c-1.373,-1.27 -2.06,-2.953 -2.06,-5.051c-0,-4.046 2.747,-6.394 8.24,-7.043c1.329,-0.147 2.333,-0.303 3.013,-0.466c0.678,-0.161 1.144,-0.346 1.395,-0.553c0.251,-0.207 0.377,-0.502 0.377,-0.886c-0,-0.709 -0.363,-1.292 -1.086,-1.75c-0.724,-0.457 -1.794,-0.687 -3.212,-0.687c-2.451,-0 -4.947,0.871 -7.487,2.615l-0,-5.539c1.093,-0.709 2.341,-1.292 3.744,-1.75c1.402,-0.457 2.916,-0.686 4.541,-0.686c3.248,-0 5.685,0.812 7.309,2.436c1.624,1.625 2.437,3.899 2.437,6.823l-0,13.777l-5.316,-0l-0.178,-2.835c-0.649,1.122 -1.513,1.986 -2.591,2.592c-1.078,0.604 -2.341,0.907 -3.788,0.907c-2.185,-0 -3.965,-0.635 -5.338,-1.904" style="fill:#58595b;fill-rule:nonzero;"/><path d="M768.684,212.506l-0,-10.056l-2.702,0l-0,-5.049l2.702,0l-0,-4.741l6.512,-1.507l-0,6.248l5.803,0l-0,5.049l-5.803,0l-0,9.126c-0,2.215 0.886,3.323 2.658,3.323c0.591,0 1.115,-0.051 1.573,-0.156c0.458,-0.102 0.982,-0.272 1.572,-0.508l-0,5.537c-0.857,0.236 -1.616,0.405 -2.281,0.509c-0.664,0.103 -1.41,0.155 -2.237,0.155c-5.198,0 -7.797,-2.643 -7.797,-7.93" style="fill:#58595b;fill-rule:nonzero;"/><path d="M785.474,197.401l6.512,0l0,22.371l-6.512,0l0,-22.371Zm0.531,-9.703c0.768,-0.767 1.683,-1.151 2.747,-1.151c1.033,0 1.927,0.384 2.68,1.151c0.753,0.769 1.13,1.669 1.13,2.703c0,1.034 -0.385,1.934 -1.152,2.702c-0.768,0.768 -1.655,1.152 -2.658,1.152c-1.064,0 -1.979,-0.384 -2.747,-1.152c-0.768,-0.768 -1.151,-1.668 -1.151,-2.702c0,-1.034 0.383,-1.934 1.151,-2.703" style="fill:#58595b;fill-rule:nonzero;"/><path d="M803.991,209.14l0,10.632l-6.512,-0l0,-31.897l6.512,-0l0,17.588l7.486,-8.062l8.241,-0l-9.215,9.879l9.48,12.492l-8.018,-0l-7.974,-10.632Z" style="fill:#58595b;fill-rule:nonzero;"/><path d="M829.265,213.304c0.989,1.123 2.354,1.684 4.097,1.684c1.714,-0 3.057,-0.561 4.032,-1.684c0.975,-1.122 1.462,-2.643 1.462,-4.562c-0,-2.039 -0.495,-3.64 -1.485,-4.807c-0.99,-1.167 -2.356,-1.75 -4.097,-1.75c-1.713,-0 -3.058,0.576 -4.032,1.727c-0.974,1.152 -1.462,2.733 -1.462,4.741c0,1.978 0.495,3.529 1.485,4.651m-2.525,5.648c-1.846,-0.989 -3.256,-2.377 -4.231,-4.164c-0.975,-1.787 -1.462,-3.832 -1.462,-6.135c-0,-2.333 0.487,-4.401 1.462,-6.203c0.975,-1.8 2.376,-3.204 4.208,-4.209c1.831,-1.002 4.017,-1.505 6.557,-1.505c2.568,-0 4.776,0.509 6.622,1.528c1.846,1.019 3.257,2.43 4.231,4.23c0.975,1.802 1.462,3.884 1.462,6.248c-0,2.302 -0.487,4.333 -1.462,6.09c-0.974,1.758 -2.377,3.131 -4.208,4.12c-1.832,0.99 -4.016,1.484 -6.557,1.484c-2.569,-0 -4.777,-0.494 -6.622,-1.484" style="fill:#58595b;fill-rule:nonzero;"/><path d="M401.711,40.009l-56.887,0l0,89.889l20.161,0l0,-33.773l35.57,0l0,-16.95l-35.57,0l0,-21.702l36.726,0l0,-17.464Z" style="fill:#58595b;fill-rule:nonzero;"/><path d="M496.635,40.009l-30.315,51.753l-30.424,-51.753l-12.585,0l-13.483,89.889l19.904,0l7.602,-52.612l22.704,37.331l12.584,0l22.599,-37.16l7.578,52.441l19.904,0l-13.483,-89.889l-12.585,0Z" style="fill:#58595b;fill-rule:nonzero;"/><path d="M596.769,57.473l-0,-17.464l-56.887,0l-0,89.889l20.161,0l-0,-33.773l35.57,0l-0,-16.95l-35.57,0l-0,-21.702l36.726,0Z" style="fill:#58595b;fill-rule:nonzero;"/><path d="M252.799,213.881l-15.192,0l14.727,-21.237l0,-3.876l-23.408,0l0,5.891l14.262,0l-14.727,21.237l0,3.876l24.338,0l0,-5.891Z" style="fill:#58595b;fill-rule:nonzero;"/><path d="M67.09,206.751l-0,-17.982l-6.976,-0l-0,17.827c-0,4.185 -1.86,7.441 -6.665,7.441c-4.186,-0 -6.666,-2.171 -6.666,-7.441l-0,-17.827l-6.976,-0l-0,17.982c-0,8.371 4.341,13.641 13.642,13.641c8.37,-0 13.641,-4.185 13.641,-13.641" style="fill:#58595b;fill-rule:nonzero;"/><path d="M188.003,213.881l-14.262,0l0,-7.286l12.711,0l0,-5.89l-12.711,0l0,-6.046l14.106,0l0,-5.891l-21.082,0l0,31.004l21.237,0l0,-5.891Z" style="fill:#58595b;fill-rule:nonzero;"/><path d="M104.449,219.772l-0,-31.003l-6.821,0l-0,17.982l-17.052,-17.982l-3.875,0l-0,31.003l6.821,0l-0,-18.292l17.052,18.292l3.875,0Z" style="fill:#58595b;fill-rule:nonzero;"/><path d="M203.969,194.659l3.72,0c3.876,0 5.736,1.55 5.736,4.341c0,2.945 -1.86,4.495 -5.736,4.495l-3.72,0l0,-8.836Zm0,14.417l2.48,0l4.496,5.89c3.1,4.186 5.425,5.581 9.921,5.426l0,-6.201c-1.86,0 -3.256,-1.395 -5.426,-4.34l-1.24,-1.706c3.565,-1.55 6.511,-4.65 6.511,-9.3c0,-6.201 -4.961,-10.077 -12.867,-10.077l-10.696,0l0,31.004l6.821,0l0,-10.696Z" style="fill:#58595b;fill-rule:nonzero;"/><rect x="114.369" y="188.769" width="6.976" height="31.003" style="fill:#58595b;"/><path d="M144.133,209.076l-8.216,-20.307l-8.061,-0l13.797,31.003l4.805,-0l13.797,-31.003l-7.906,-0l-8.216,20.307Z" style="fill:#58595b;fill-rule:nonzero;"/><path d="M277.58,208.744l-4.03,-10.675l-4.076,10.675l8.106,0Zm-6.643,-19.975l5.269,0l13.51,31.003l-7.973,0l-2.038,-5.359l-12.4,0l-2.038,5.359l-7.973,0l13.643,-31.003Z" style="fill:#58595b;fill-rule:nonzero;"/><path d="M68.208,253.541l8.37,0l0,22.632c0,3.566 -0.31,8.526 -2.325,11.782l7.285,0c1.706,-3.411 2.016,-7.441 2.016,-12.247l0,-28.058l-15.347,0l0,5.891Z" style="fill:#58595b;fill-rule:nonzero;"/><path d="M55.186,247.651l-6.976,-0l0,31.003l19.997,-0l0,-5.89l-13.021,-0l0,-25.113Z" style="fill:#58595b;fill-rule:nonzero;"/><path d="M16.122,267.958l-8.061,-20.307l-8.061,-0l13.642,31.003l4.805,-0l13.642,-31.003l-7.906,-0l-8.061,20.307Z" style="fill:#58595b;fill-rule:nonzero;"/><path d="M168.968,247.651l-6.976,-0l0,31.003l19.997,-0l0,-5.89l-13.021,-0l0,-25.113Z" style="fill:#58595b;fill-rule:nonzero;"/><path d="M263.683,265.633l-17.052,-17.982l-3.875,-0l0,31.003l6.82,-0l0,-18.292l17.052,18.292l3.876,-0l0,-31.003l-6.821,-0l0,17.982Z" style="fill:#58595b;fill-rule:nonzero;"/><rect x="280.425" y="247.651" width="6.976" height="31.003" style="fill:#58595b;"/><path d="M113.472,265.478c0,4.186 -1.86,7.441 -6.666,7.441c-4.185,-0 -6.665,-2.17 -6.665,-7.441l0,-17.827l-6.976,-0l0,17.982c0,8.371 4.34,13.641 13.641,13.641c8.371,-0 13.642,-4.185 13.642,-13.641l0,-17.982l-6.976,-0l0,17.827Z" style="fill:#58595b;fill-rule:nonzero;"/><path d="M181.99,253.541l8.371,0l-0,22.632c-0,3.566 -0.31,8.526 -2.325,11.782l7.285,0c1.705,-3.411 2.016,-7.441 2.016,-12.247l-0,-28.058l-15.347,0l-0,5.891Z" style="fill:#58595b;fill-rule:nonzero;"/><path d="M141.375,272.919l-4.185,-0l0,-7.286l4.185,-0c3.41,-0 4.961,1.24 4.961,3.721c0,2.325 -1.551,3.565 -4.961,3.565m-4.185,-19.687l2.79,-0c3.1,-0 4.65,1.085 4.65,3.41c0,2.481 -1.55,3.566 -4.65,3.566l-2.79,-0l0,-6.976Zm10.854,8.752c2.18,-1.087 3.717,-3.111 3.717,-6.427c0,-5.27 -3.875,-7.906 -10.696,-7.906l-11.006,-0l0,31.004l12.246,-0c6.976,-0 11.316,-2.326 11.316,-8.681c0,-3.937 -1.826,-6.85 -5.577,-7.99" style="fill:#58595b;fill-rule:nonzero;"/><path d="M224.12,267.626l-4.03,-10.675l-4.075,10.675l8.105,0Zm-6.643,-19.975l5.27,0l13.509,31.003l-7.972,0l-2.038,-5.359l-12.401,0l-2.037,5.359l-7.973,0l13.642,-31.003Z" style="fill:#58595b;fill-rule:nonzero;"/><rect x="314.169" y="0" width="2.77" height="318.61" style="fill:#58595b;"/><rect x="283.306" y="116.899" width="4.094" height="6.17" style="fill:#e03128;"/><rect x="273.342" y="104.259" width="4.125" height="8.537" style="fill:#e03128;"/><rect x="283.306" y="104.259" width="4.094" height="8.537" style="fill:#e03128;"/><rect x="273.342" y="97.429" width="14.058" height="2.726" style="fill:#e03128;"/><rect x="273.342" y="127.143" width="14.058" height="2.756" style="fill:#e03128;"/><rect x="273.342" y="116.899" width="4.125" height="6.17" style="fill:#e03128;"/><rect x="283.306" y="72.149" width="4.094" height="8.537" style="fill:#e03128;"/><rect x="273.342" y="65.291" width="14.058" height="2.755" style="fill:#e03128;"/><path d="M273.342,93.326l4.125,0l0,-6.5c0,-1.138 -0.934,-2.037 -2.077,-2.037c-1.145,0 -2.048,0.899 -2.048,2.037l0,6.5Z" style="fill:#e03128;fill-rule:nonzero;"/><rect x="266.448" y="40.009" width="20.952" height="2.726" style="fill:#e03128;"/><path d="M285.353,84.789c-1.144,0 -2.047,0.899 -2.047,2.037l0,6.5l4.094,0l0,-6.5c0,-1.138 -0.903,-2.037 -2.047,-2.037" style="fill:#e03128;fill-rule:nonzero;"/><rect x="273.342" y="72.149" width="4.125" height="8.537" style="fill:#e03128;"/><path d="M193.655,93.326l4.125,0l0,-6.5c0,-1.138 -0.934,-2.037 -2.077,-2.037c-1.144,0 -2.048,0.899 -2.048,2.037l0,6.5Z" style="fill:#e03128;fill-rule:nonzero;"/><rect x="183.691" y="72.149" width="4.124" height="8.537" style="fill:#e03128;"/><path d="M247.573,26.138l-0,1.378l-0.004,-0l-0,0.499l2.743,-0l-0,-1.877c-0,-2.157 -1.444,-3.985 -3.432,-4.584l-0,-21.553l-2.74,-0l-0,24.1l1.356,-0c1.143,-0 2.077,0.929 2.077,2.037" style="fill:#e03128;fill-rule:nonzero;"/><rect x="213.555" y="72.149" width="4.124" height="8.537" style="fill:#e03128;"/><path d="M183.691,93.326l4.124,0l0,-6.5c0,-1.138 -0.933,-2.037 -2.077,-2.037c-1.144,0 -2.047,0.899 -2.047,2.037l0,6.5Z" style="fill:#e03128;fill-rule:nonzero;"/><rect x="183.691" y="116.899" width="4.124" height="6.17" style="fill:#e03128;"/><path d="M215.632,84.789c-1.144,0 -2.076,0.899 -2.076,2.037l-0,6.5l4.124,0l-0,-6.5c-0,-1.138 -0.904,-2.037 -2.048,-2.037" style="fill:#e03128;fill-rule:nonzero;"/><rect x="203.621" y="72.149" width="4.094" height="8.537" style="fill:#e03128;"/><rect x="193.655" y="72.149" width="4.125" height="8.537" style="fill:#e03128;"/><path d="M203.621,93.326l4.094,0l-0,-6.5c-0,-1.138 -0.904,-2.037 -2.047,-2.037c-1.144,0 -2.047,0.899 -2.047,2.037l-0,6.5Z" style="fill:#e03128;fill-rule:nonzero;"/><path d="M179.567,72.149l-2.739,0l0,57.75l40.851,0l0,-2.756l-38.112,0l0,-26.988l38.112,0l0,-2.726l-38.112,0l0,-25.28Z" style="fill:#e03128;fill-rule:nonzero;"/><rect x="183.691" y="104.259" width="4.124" height="8.537" style="fill:#e03128;"/><path d="M235.01,34.528l20.992,0l3.312,12.37l2.86,0l-4.05,-15.096l-25.236,0l-4.05,15.096l2.86,0l3.312,-12.37Z" style="fill:#e03128;fill-rule:nonzero;"/><rect x="213.555" y="104.259" width="4.124" height="8.537" style="fill:#e03128;"/><path d="M232.236,110.404l-0,22.032l2.739,-0l-0,-22.032c-0,-3.385 -2.77,-6.14 -6.172,-6.14l-0.136,-0l-0,2.733c0.12,-0 0.016,-0.008 0.136,-0.008c1.897,-0 3.433,1.528 3.433,3.415" style="fill:#e03128;fill-rule:nonzero;"/><rect x="213.555" y="116.899" width="4.124" height="6.17" style="fill:#e03128;"/><rect x="193.655" y="116.899" width="4.125" height="6.17" style="fill:#e03128;"/><rect x="193.655" y="104.259" width="4.125" height="8.537" style="fill:#e03128;"/><rect x="203.621" y="116.899" width="4.094" height="6.17" style="fill:#e03128;"/><rect x="203.621" y="104.259" width="4.094" height="8.537" style="fill:#e03128;"/><path d="M255.821,93.326l4.124,0l0,-6.5c0,-1.138 -0.933,-2.037 -2.077,-2.037c-1.144,0 -2.047,0.899 -2.047,2.037l0,6.5Z" style="fill:#e03128;fill-rule:nonzero;"/><path d="M186.539,42.735l38.035,0l-0,-2.726l-40.142,-0.001l-7.574,28.037l40.822,0l-0,-2.755l-37.222,0l6.081,-22.555Z" style="fill:#e03128;fill-rule:nonzero;"/><path d="M266.448,131.427l2.77,-1.528l0,-77.579l-2.77,-0l0,79.107Z" style="fill:#e03128;fill-rule:nonzero;"/><path d="M256.046,110.404l0,22.032l2.739,-0l0,-22.032c0,-1.887 1.536,-3.415 3.432,-3.415c0.121,-0 0.017,0.008 0.137,0.008l0,-2.733l-0.137,0c-3.401,0 -6.171,2.755 -6.171,6.14" style="fill:#e03128;fill-rule:nonzero;"/><path d="M247.573,97.43l-4.124,-0l-0,-7.878c-0,-1.108 0.933,-2.036 2.047,-2.036c1.143,-0 2.077,0.928 2.077,2.036l-0,7.878Zm2.739,-7.878c-0,-2.635 -2.137,-4.762 -4.816,-4.762c-2.65,-0 -4.786,2.127 -4.786,4.762l-0,7.878l-12.043,-0l-0,2.726l33.687,-0l-0,-2.726l-12.042,-0l-0,-7.878Z" style="fill:#e03128;fill-rule:nonzero;"/><path d="M255.129,52.408l-9.633,-5.539l-0.053,-0.034l-9.552,5.543l0,4.705l-7.224,-0l0,2.756l9.964,-0l0,-5.901l6.835,-3.924l6.922,3.953l0,5.872l9.966,-0l0,-2.756l-7.225,-0l0,-4.675Z" style="fill:#e03128;fill-rule:nonzero;"/><path d="M231.076,93.326l4.125,0l-0,-6.5c-0,-1.138 -0.905,-2.037 -2.049,-2.037c-1.143,0 -2.076,0.899 -2.076,2.037l-0,6.5Z" style="fill:#e03128;fill-rule:nonzero;"/><path d="M251.697,132.436l0,-22.032c0,-3.385 -2.769,-6.141 -6.202,-6.141c-3.401,0 -6.171,2.756 -6.171,6.141l0,22.032l2.739,0l0,-22.032c0,-1.888 1.536,-3.415 3.432,-3.415c1.896,0 3.462,1.527 3.462,3.415l0,22.032l2.74,0Z" style="fill:#e03128;fill-rule:nonzero;"/><path d="M221.804,129.899l2.77,1.528l-0,-79.107l-2.77,-0l0,77.579Z" style="fill:#e03128;fill-rule:nonzero;"/><path d="M248.265,57.475c-0,-1.54 -1.234,-2.787 -2.769,-2.787c-1.506,-0 -2.74,1.247 -2.74,2.787c-0,1.54 1.234,2.787 2.74,2.787c1.535,-0 2.769,-1.247 2.769,-2.787" style="fill:#e03128;fill-rule:nonzero;"/><rect x="231.075" y="72.149" width="4.125" height="8.537" style="fill:#e03128;"/><path d="M245.587,62.564c-2.98,0 -5.69,1.018 -7.827,2.726l-9.093,0l-0,2.755l10.115,0c1.748,-1.707 4.155,-2.755 6.805,-2.755c2.648,0 5.026,1.048 6.802,2.755l9.965,0l-0,-2.755l-8.94,0c-2.138,-1.708 -4.878,-2.726 -7.827,-2.726" style="fill:#e03128;fill-rule:nonzero;"/><path d="M250.311,80.686l0,-6.5c0,-2.636 -2.137,-4.792 -4.816,-4.792c-2.649,-0 -4.786,2.156 -4.786,4.792l0,6.5l2.739,-0l0,-6.5c0,-1.138 0.933,-2.037 2.047,-2.037c1.143,-0 2.077,0.899 2.077,2.037l0,6.5l2.739,-0Z" style="fill:#e03128;fill-rule:nonzero;"/><rect x="255.821" y="72.149" width="4.124" height="8.537" style="fill:#e03128;"/><path d="M232.281,136.525l-3.614,-2.054l-0,3.163l2.878,1.617l27.932,-0l2.877,-1.617l-0,-3.163l-3.613,2.054l-26.46,-0Z" style="fill:#e03128;fill-rule:nonzero;"/></g></svg>